<?xml version="1.0" encoding="UTF-8" standalone="no"?>
<!-- Created with Inkscape (http://www.inkscape.org/) -->

<svg
   width="36.246948mm"
   height="15.99444mm"
   viewBox="0 0 36.246949 15.99444"
   version="1.1"
   id="svg1"
   sodipodi:docname="01.svg"
   inkscape:version="1.4.2 (1:1.4.2+202505120738+ebf0e940d0)"
   xmlns:inkscape="http://www.inkscape.org/namespaces/inkscape"
   xmlns:sodipodi="http://sodipodi.sourceforge.net/DTD/sodipodi-0.dtd"
   xmlns="http://www.w3.org/2000/svg"
   xmlns:svg="http://www.w3.org/2000/svg">
  <sodipodi:namedview
     id="namedview1"
     pagecolor="#ffffff"
     bordercolor="#999999"
     borderopacity="1"
     inkscape:showpageshadow="2"
     inkscape:pageopacity="0"
     inkscape:pagecheckerboard="0"
     inkscape:deskcolor="#d1d1d1"
     inkscape:document-units="mm"
     inkscape:zoom="8.1243046"
     inkscape:cx="68.436626"
     inkscape:cy="30.279514"
     inkscape:window-width="1920"
     inkscape:window-height="1011"
     inkscape:window-x="0"
     inkscape:window-y="0"
     inkscape:window-maximized="1"
     inkscape:current-layer="svg1" />
  <defs
     id="defs1" />
  <path
     id="path428-0"
     d="M 29.6813 3.05153 C 29.493 3.69182 29.3324 4.58823 29.3324 4.58823 C 29.1441 5.22852 28.3531 5.71817 27.9764 6.32072 C 27.6 6.92326 27.7883 7.67644 28.5412 8.20385 C 29.2947 8.7309 30.8762 8.91928 31.5916 8.95703 C 32.3074 8.99442 32.4581 8.95703 32.4581 8.95703 C 33.249 7.86483 32.9354 7.82708 32.6341 6.37117 C 32.372 5.10364 31.1584 4.0266 29.6898 3.0734 C 29.4711 2.93158 29.2467 2.79188 29.0188 2.65536 C 27.2613 1.60055 25.0014 0.044097 18.1222 0.044097 C 13.3897 0.044097 9.90709 1.54164 7.69411 2.77036 C 6.69081 3.32775 5.94857 3.8294 5.46914 4.11163 C 5.04193 4.36245 2.82014 6.01945 1.50216 7.41292 C 1.50216 7.41292 3.08366 5.9817 3.34719 5.90656 C 3.61106 5.83106 4.251 5.4169 4.43938 5.64268 C 4.62777 5.86881 5.56933 6.92326 6.05863 6.81037 C 6.54829 6.69749 7.97916 5.68043 8.16789 5.07788 C 8.35592 4.47534 7.97316 4.03825 7.82887 3.53413 C 7.75338 3.27025 7.67824 2.80105 7.67824 2.80105 M 27.8638 7.33778 C 27.8638 7.33778 26.47 7.22454 26.3194 6.43361 C 26.1687 5.64268 26.693 4.86163 26.9223 4.17407 C 27.1103 3.60927 27.148 3.42089 27.1858 2.81834 C 27.2235 2.2158 27.4391 1.75189 27.4391 1.75189 M 26.2442 6.13234 C 25.7546 6.28297 24.3988 6.13234 24.3611 5.00274 C 24.3237 3.87279 24.9636 0.78493 24.9636 0.78493 M 24.5495 5.56789 C 24.2486 6.05719 23.4573 6.47136 22.5912 5.9817 C 22.5912 5.9817 22.0363 3.42089 22.0363 1.76389 C 22.0363 0.890411 22.4032 0.295275 22.4032 0.295275 M 22.5912 5.9817 C 22.5912 5.9817 22.7418 6.96101 21.9887 7.0739 C 21.2355 7.18679 20.1055 6.17008 20.1055 6.17008 M 16.3022 0.144639 C 16.1516 0.709789 16.0387 1.72614 16.1516 2.17805 C 16.2645 2.63031 16.5658 4.02343 16.3774 4.62598 C 16.189 5.22852 15.9632 5.9817 16.2267 6.20783 C 16.4903 6.43361 17.3941 6.5091 17.7331 6.84777 C 18.0721 7.18679 19.3901 7.26228 19.7669 6.77263 C 20.1433 6.28297 20.2939 5.4924 19.8798 5.19113 C 19.4652 4.88985 19.5785 4.47534 19.6162 3.8354 C 19.6536 3.19511 19.5033 2.74285 19.3901 2.40418 C 19.2772 2.06516 19.2772 0.897821 19.5033 0.182035 M 13.1389 0.672043 C 13.1389 1.19909 13.1011 1.95227 13.2895 2.63031 C 13.4779 3.308 13.2895 4.47534 12.9879 5.71818 C 12.687 6.96101 12.3857 8.84379 13.9295 9.2957 C 15.4736 9.7476 16.7915 9.63471 17.4696 9.48408 C 18.1476 9.33344 18.7124 8.54287 18.7879 7.0739 M 9.37298 1.91488 C 9.14685 2.70545 9.41038 3.68477 9.56101 4.13632 C 9.71165 4.58823 9.67426 4.81436 9.07171 5.64268 C 8.46917 6.47136 7.90402 7.41292 7.90402 8.39223 C 7.90402 9.37119 8.50656 9.7476 9.29749 9.7476 C 10.0884 9.7476 10.6158 9.44633 10.6158 9.44633 M 32.4958 6.24558 C 31.8555 6.5465 31.0646 7.71419 31.931 8.88153 M 8.16789 5.07789 C 8.16789 5.07789 8.93131 5.14668 9.41038 5.04014 C 9.7494 4.965 11.0677 5.00274 11.4819 4.88985 C 11.896 4.77661 12.875 4.81436 13.2895 4.66372 C 13.7037 4.51309 15.3984 4.43759 16.3774 4.47534 C 17.3567 4.51309 18.8631 4.62597 19.4652 4.66372 C 20.0681 4.70147 20.2939 5.04013 20.8213 5.22852 C 21.3484 5.4169 21.6123 5.30401 22.6667 5.34141 C 23.7208 5.37916 24.4366 5.4924 24.4366 5.4924 M 22.2899 7.0739 C 22.3654 7.82708 23.0805 9.22055 23.5328 9.63471 C 23.5328 9.63471 24.3611 9.25795 25.2649 9.48408 C 26.1687 9.71021 26.5078 9.63471 26.6587 9.67246 C 26.809 9.71021 27.2987 8.95703 27.1858 8.24124 C 27.0725 7.52581 26.9974 7.22454 26.9974 7.22454 M 18.7124 7.75158 C 18.7879 8.58026 19.8043 10.8398 20.7084 11.6307 C 20.7084 11.6307 21.0475 12.0826 21.6496 11.593 C 22.2522 11.1033 22.5161 11.1785 22.5161 11.1785 C 22.5161 11.1785 22.5535 10.1244 22.5535 9.59696 C 22.5535 9.06991 22.4406 7.67644 22.4406 7.67644 M 30.8762 8.91928 C 30.9139 9.29569 32.2323 11.2166 33.927 11.5552 C 33.927 11.5552 35.0566 11.5552 35.4334 11.4046 L 35.245 11.1785 C 35.245 11.1785 34.0773 11.1785 33.6257 10.7647 C 33.1738 10.3505 32.6464 9.86084 32.6464 9.86084 C 32.6464 9.86084 31.9963 9.72043 31.5817 10.0217 M 32.458 8.95702 L 32.3829 9.76806 M 23.5328 9.63471 C 23.8718 10.0866 25.2649 11.0659 27.4116 11.254 C 27.4116 11.254 25.7447 10.5558 25.1421 9.46396 M 28.0896 7.86482 C 27.8257 8.69314 27.8257 9.14541 27.9764 9.7476 L 28.2025 9.55921 C 28.2025 9.55921 28.5891 8.68327 28.9282 8.34425 M 22.2899 12.3839 C 23.495 13.1371 24.8134 13.0238 25.491 12.9491 C 25.491 12.9491 25.3782 11.6307 25.6794 11.593 C 25.6794 11.593 22.968 11.4801 22.7418 11.3295 C 22.7418 11.3295 22.3654 11.9697 22.2899 12.3839 Z M 25.491 12.9491 C 25.8297 12.9864 28.127 13.0619 28.7299 13.1748 C 29.3324 13.2877 29.446 13.5893 30.2363 13.928 C 30.4998 14.0409 31.1401 14.3422 31.6675 14.3422 C 31.6675 14.3422 30.4243 12.8736 28.9179 12.271 C 28.9179 12.271 26.2442 12.0071 25.8678 11.7814 C 25.491 11.5552 25.6614 11.641 25.6614 11.641 M 21.2355 11.8191 C 21.4613 12.0826 21.9135 12.459 22.2899 12.3839 M 22.7418 11.3295 L 22.5161 11.1785 M 17.3189 9.55921 C 17.8086 10.6892 17.8837 11.7059 17.8837 11.7059 L 17.3567 11.8191 C 17.0551 11.3295 16.6892 8.98101 16.001 9.7102 C 15.3607 10.3879 14.1556 11.593 13.8543 11.9697 L 13.553 12.3462 C 13.553 12.3462 13.0256 12.1578 12.8376 12.2333 C 12.8376 12.2333 13.2518 11.6307 13.4779 11.2166 C 13.7037 10.8021 14.2685 10.3879 14.4946 10.1995 C 14.7204 10.0115 15.0217 9.82309 15.0594 9.59696 M 7.97916 8.99442 C 7.41436 9.29569 6.62378 9.03217 6.24702 8.88153 C 6.24702 8.88153 5.908 7.22453 4.89129 7.26228 C 3.87459 7.30003 4.10072 7.22453 4.10072 7.22453 M 5.15482 6.32071 C 4.70291 6.77262 4.06297 7.33777 3.57331 7.37516 C 3.08366 7.41291 2.70724 7.11164 2.78239 6.73523 M 1.50216 7.41291 L 2.21759 7.41291 C 2.51886 7.41291 2.78239 7.37516 2.89563 7.18678 M 5.23031 11.7436 C 5.23031 11.0282 5.49384 10.7269 5.8706 10.3879 C 6.24702 10.0492 6.73667 10.0115 6.62378 10.614 C 6.51054 11.2166 6.32251 11.4801 6.32251 11.932 C 6.32251 12.3839 6.09638 12.6097 5.68222 12.6474 C 5.26771 12.6852 5.23031 12.2333 5.23031 11.7436 Z M 11.0677 1.34972 C 10.9167 2.1029 10.8793 3.38348 11.1429 3.98603 C 11.4064 4.58822 11.6699 4.81435 11.0677 5.98169 C 10.4648 7.14903 9.86264 9.48407 10.9545 9.67245 C 12.0467 9.86084 13.0634 9.6347 13.4779 9.10766 L 13.2895 9.78534 C 13.2895 9.78534 12.9879 9.93598 12.9128 10.3505 C 12.8376 10.7647 12.348 11.254 12.0844 11.593 C 11.8209 11.932 11.4819 12.271 11.2558 12.5345 C 11.0296 12.7981 10.8038 13.3629 10.8038 13.3629 L 10.2013 13.2877 C 10.2768 12.8358 10.1258 12.6474 10.4648 12.3839 C 10.8038 12.1204 10.9545 11.5552 11.2935 10.9904 C 11.2935 10.9904 11.9334 10.5008 12.1973 10.3505 C 12.1973 10.3505 12.2347 9.97373 12.3857 9.7476 M 17.3567 11.8191 C 17.5451 12.0826 17.997 12.7981 18.1476 13.2122 C 18.1476 13.2122 18.2228 12.1955 17.8837 11.7059 M 7.67824 13.5516 C 7.30147 12.9491 7.5276 11.8569 7.94176 11.254 C 8.35592 10.6514 8.61945 11.0659 8.61945 11.0659 L 9.07171 11.3295 C 9.07171 11.3295 8.80783 12.271 8.77044 12.5345 C 8.73269 12.7981 8.69495 12.8736 8.35592 13.1371 C 8.01726 13.4006 7.67824 13.5516 7.67824 13.5516 Z M 6.62378 10.7269 C 6.84956 10.5763 7.11309 10.7269 7.30147 10.7647 C 7.48985 10.8021 7.94176 10.5763 7.86662 10.275 C 7.79113 9.97373 7.82887 10.1244 7.82887 10.1244 C 7.82887 10.1244 6.88731 9.89824 6.54829 10.0866 M 3.34718 7.37517 C 3.1214 7.63869 2.93302 8.05285 2.89562 8.20384 C 2.85787 8.35413 2.66949 8.88153 2.51886 9.06991 C 2.51886 9.06991 2.97077 9.06991 3.38493 8.46737 C 3.38493 8.46737 3.1969 8.76864 3.27204 9.25794 C 3.34718 9.7476 3.49782 9.82309 3.49782 9.82309 C 3.49782 9.82309 3.91233 9.1828 3.91233 8.88153 M 8.5443 10.9153 C 8.65719 10.5763 9.41037 10.3879 9.56101 10.5385 C 9.71164 10.6892 9.52362 11.2917 9.52362 11.2917 L 9.07171 11.3295 M 10.2013 13.2877 L 10.2768 13.8903 L 10.5781 13.7774 L 10.8038 13.3629 M 12.8376 12.2333 C 12.8376 12.2333 12.6492 12.9491 12.687 13.0619 L 13.1763 13.1371 C 13.1763 13.1371 13.553 12.5345 13.553 12.3462 M 31.1775 14.3044 C 31.1775 14.3044 31.0999 14.2533 31.1775 14.3044 C 31.5588 14.557 33.1876 15.4294 33.6257 15.9614 C 33.6257 15.9614 32.3074 14.7941 32.0061 14.5306 C 31.7049 14.267 31.1775 14.3044 31.1775 14.3044 Z M 27.9764 9.7476 C 27.9764 9.7476 28.127 11.0659 28.466 11.5178 L 28.1647 9.78534 Z M 32.6464 9.86084 C 32.6464 9.86084 32.7219 9.48407 32.8348 9.44633 M 25.7546 6.24557 C 25.4155 6.69748 25.152 7.63869 25.152 8.01546 C 25.152 8.01546 25.3027 7.22453 24.9636 6.54649 M 12.687 13.0619 C 12.687 13.0619 12.875 13.7396 12.9879 13.9658 C 12.9879 13.9658 13.2895 13.7774 13.1763 13.3629 M 10.2768 13.8903 C 10.3142 14.116 11.1051 14.7941 11.5193 14.7186 C 11.5193 14.7186 10.6532 14.3044 10.6158 13.928 M 3.34718 9.7476 C 3.34718 9.7476 3.6862 11.1785 3.72395 11.5552 L 3.61106 9.89823 M 1.57729 7.6013 C 1.57729 7.6013 1.46441 7.86482 1.16313 8.05285 C 0.861861 8.24124 0.183822 8.58026 0.183822 8.58026 C 0.183822 8.58026 0.824114 8.31673 1.12539 8.39223 M 1.12539 8.50511 C 0.984275 8.9288 0.578228 9.38529 0.186292 9.68904 C 0.160542 9.70915 0.134432 9.7289 0.108682 9.7476 C -0.305832 10.0492 1.38891 9.10766 1.72793 8.58025 M 2.66949 8.46737 C 2.33048 8.50512 1.91631 8.50512 1.61504 8.42962 M 3.7617 8.42962 C 4.10072 8.42962 4.85354 8.46737 5.23031 8.09095 M 4.43938 7.41292 C 4.251 7.82708 4.10072 8.39223 4.13811 8.95703 M 5.4187 8.69315 C 5.64447 8.84379 6.05863 8.99442 6.24702 8.88153 M 2.51886 6.92326 C 2.6695 6.77263 3.1588 6.43361 3.30944 6.35847 M 7.5276 10.7647 C 7.71598 10.8775 8.6572 10.4634 8.77044 10.1995 C 8.88333 9.93599 9.29749 9.7476 9.29749 9.7476 M 8.24304 9.52182 C 8.24304 9.52182 8.24304 9.97373 7.82887 10.1244 M 5.87061 12.6474 C 5.87061 12.6474 6.58604 12.7981 6.81217 12.5345 L 6.20927 12.4217 M 7.67824 13.5516 C 7.67824 13.5516 8.20529 13.8529 8.58206 13.6645 L 7.97916 13.3255 M 9.52362 11.2917 C 9.86264 11.2166 10.6532 10.7269 10.8038 10.3128 C 10.9545 9.89824 11.1429 9.8231 11.4441 9.8231 M 9.63651 10.6892 C 9.93778 10.5763 10.2013 10.3879 10.2391 10.0492 C 10.2768 9.71021 10.6158 9.55922 10.6158 9.55922 M 17.2061 10.6137 C 17.2061 10.6137 17.5451 10.4634 17.658 10.7269 M 28.7299 13.1748 C 28.7299 13.1748 28.5789 12.4968 28.9557 12.4217 M 33.3619 8.80639 C 33.7009 8.84378 34.3412 8.69315 34.3412 8.69315 L 34.2283 8.24124 C 33.9644 8.39223 33.0606 8.12835 33.0606 8.12835 C 33.5503 8.6554 33.249 9.48408 33.249 9.48408 C 33.4751 9.59697 34.4918 10.2373 34.4918 10.2373 C 34.4541 10.5385 34.9811 10.6892 34.9811 10.6892 C 34.7179 10.7647 33.9644 10.8021 33.5503 10.6514 M 33.6631 9.55922 C 31.9931 9.83756 34.4562 9.66681 34.6425 9.22055 C 34.8308 8.76864 34.7553 8.76864 34.7553 8.76864 L 34.2657 8.76864 M 34.4541 10.0866 C 34.8682 10.0492 35.3201 10.5385 35.6969 10.1244 L 34.9811 10.5008 M 35.3956 11.1785 C 35.6214 11.2166 36.224 11.0659 36.224 11.0659 L 35.5463 11.4801 M 34.2283 8.24124 C 34.5296 8.12835 34.7553 7.6013 34.7553 7.6013 C 34.7553 7.6013 34.8682 8.58026 34.4541 8.6554 M 34.7 8.80639 C 34.7 8.80639 35.2827 8.7309 35.3579 8.54286 C 35.4334 8.35413 35.0566 9.22055 34.7931 9.1828"
     style="fill:none;stroke:#231f20;stroke-width:0.0881944;stroke-linecap:butt;stroke-linejoin:miter;stroke-miterlimit:4;stroke-dasharray:none;stroke-opacity:1" />
</svg>
