<?xml version="1.0" encoding="UTF-8" standalone="no"?>
<!-- Created with Inkscape (http://www.inkscape.org/) -->

<svg
   width="23.741278mm"
   height="26.799942mm"
   viewBox="0 0 23.741278 26.799942"
   version="1.1"
   id="svg1"
   sodipodi:docname="02.svg"
   inkscape:version="1.4.2 (1:1.4.2+202505120738+ebf0e940d0)"
   xmlns:inkscape="http://www.inkscape.org/namespaces/inkscape"
   xmlns:sodipodi="http://sodipodi.sourceforge.net/DTD/sodipodi-0.dtd"
   xmlns="http://www.w3.org/2000/svg"
   xmlns:svg="http://www.w3.org/2000/svg">
  <sodipodi:namedview
     id="namedview1"
     pagecolor="#ffffff"
     bordercolor="#999999"
     borderopacity="1"
     inkscape:showpageshadow="2"
     inkscape:pageopacity="0"
     inkscape:pagecheckerboard="0"
     inkscape:deskcolor="#d1d1d1"
     inkscape:document-units="mm"
     inkscape:zoom="5.123845"
     inkscape:cx="44.888165"
     inkscape:cy="50.547977"
     inkscape:window-width="1920"
     inkscape:window-height="1011"
     inkscape:window-x="0"
     inkscape:window-y="0"
     inkscape:window-maximized="1"
     inkscape:current-layer="svg1" />
  <defs
     id="defs1" />
  <path
     id="path236-8"
     d="M 13.9472 16.034 C 14.0062 15.9828 14.0545 15.9218 14.0912 15.8519 C 14.0877 15.8787 14.0831 15.9052 14.0831 15.9331 C 14.0831 15.9613 14.088 15.9881 14.0916 16.0149 C 14.0418 16.0153 13.9939 16.023 13.9473 16.034"
     style="fill:#d6e3f4;fill-opacity:1;fill-rule:nonzero;stroke:none;stroke-width:0.352778" />
  <path
     id="path241-1"
     d="M 10.8259 12.0793 C 11.2129 12.6812 11.6517 13.0579 12.0909 13.0579 C 12.5495 13.0579 13.1009 12.5672 13.2731 12.1717 M 9.60702 8.21675 C 9.66135 8.69512 9.74954 9.24298 9.86419 9.70265 M 14.5304 9.75521 C 14.7064 9.25427 14.8384 8.69335 14.9086 8.26508 M 14.8437 8.27038 C 14.9357 8.17689 14.9661 8.01497 14.9661 7.71864 C 14.9661 4.51506 12.8713 2.9131 12.2553 2.9131 C 11.3519 2.9131 9.54458 5.33668 9.54458 7.22581 C 9.54458 7.62833 9.42252 8.15361 9.85573 8.32824 C 10.2156 8.47358 10.9419 8.39809 11.3395 8.42173 C 12.3372 8.48206 13.3496 8.49405 14.3459 8.40974 C 14.596 8.38893 14.7512 8.36458 14.8437 8.27039 Z M 9.90476 9.76616 C 9.91426 9.92844 10.1785 11.1311 10.3496 11.1646 C 11.1024 11.3124 13.0343 11.3963 13.9084 11.1953 C 14.1339 10.7642 14.4161 10.2876 14.4916 9.80249 C 13.8527 9.59083 12.8092 9.79899 12.1139 9.78909 C 11.3762 9.77851 10.6336 9.89528 9.90476 9.76616 Z M 10.3496 11.1646 C 10.4957 11.5046 10.6558 11.814 10.8259 12.0793 C 11.3861 12.2102 12.6434 12.2846 13.3334 12.1344 C 13.5345 11.8595 13.7285 11.5392 13.9084 11.1953 C 13.0343 11.3963 11.1024 11.3124 10.3496 11.1646 Z M 11.6598 12.945 C 11.3519 13.1913 11.4439 13.4375 11.5981 13.6841 C 11.7519 13.9307 12.1527 13.7148 12.2758 13.7458 C 12.3989 13.7765 12.7072 13.869 12.7072 13.4993 C 12.7072 13.325 12.5531 12.945 12.5531 12.945 M 12.3682 16.4873 C 12.3696 16.4467 12.3714 16.41 12.3731 16.3712 C 12.1128 16.246 11.948 16.3162 11.8132 16.4531 C 11.8132 16.4542 11.8136 16.4556 11.8136 16.4566 C 11.8446 17.0108 12.1833 19.6601 12.3989 20.3685 C 12.6148 21.0769 12.6451 21.2924 12.6451 21.2924 L 13.0152 21.1386 C 13.0152 21.1386 12.2757 18.9518 12.3682 16.4873 Z M 12.3731 16.3712 C 12.4694 14.0521 12.7375 14.8451 12.7375 14.2694 C 12.7375 13.6841 12.3989 13.8076 12.1526 13.8076 C 11.906 13.8076 11.5056 13.8997 11.5056 14.2694 C 11.5056 14.6384 11.7815 15.8967 11.8133 16.4531 C 11.948 16.3162 12.1128 16.246 12.3731 16.3712 Z"
     style="fill:none;stroke:#231f20;stroke-width:0.0881944;stroke-linecap:butt;stroke-linejoin:miter;stroke-miterlimit:4;stroke-dasharray:none;stroke-opacity:1" />
  <path
     id="path243-1"
     d="M 8.42521 17.1346 C 8.42521 17.5086 8.12147 17.8116 7.74753 17.8116 C 7.37323 17.8116 7.07019 17.5086 7.07019 17.1346 C 7.07019 16.76 7.37323 16.4566 7.74753 16.4566 C 8.12147 16.4566 8.42521 16.76 8.42521 17.1346 Z"
     style="fill:none;stroke:#231f20;stroke-width:0.0881944;stroke-linecap:butt;stroke-linejoin:miter;stroke-miterlimit:4;stroke-dasharray:none;stroke-opacity:1" />
  <path
     id="path245-5"
     d="M 7.13158 17.3809 C 7.13158 17.7548 6.82784 18.0582 6.45354 18.0582 C 6.07959 18.0582 5.77621 17.7548 5.77621 17.3809 C 5.77621 17.0066 6.07959 16.7032 6.45354 16.7032 C 6.82784 16.7032 7.13158 17.0066 7.13158 17.3809 Z"
     style="fill:none;stroke:#231f20;stroke-width:0.0881944;stroke-linecap:butt;stroke-linejoin:miter;stroke-miterlimit:4;stroke-dasharray:none;stroke-opacity:1" />
  <path
     id="path249-9"
     d="M 9.61372 16.4947 C 9.61372 16.8408 9.33326 17.1212 8.98754 17.1212 C 8.64182 17.1212 8.36136 16.8408 8.36136 16.4947 C 8.36136 16.1493 8.64182 15.8689 8.98754 15.8689 C 9.33326 15.8689 9.61372 16.1493 9.61372 16.4947 Z"
     style="fill:none;stroke:#231f20;stroke-width:0.0881944;stroke-linecap:butt;stroke-linejoin:miter;stroke-miterlimit:4;stroke-dasharray:none;stroke-opacity:1" />
  <path
     id="path251-04"
     d="M 10.7532 15.5711 C 10.7532 15.9161 10.4731 16.1969 10.1274 16.1969 C 9.78129 16.1969 9.50119 15.9161 9.50119 15.5711 C 9.50119 15.2254 9.78129 14.9446 10.1274 14.9446 C 10.4731 14.9446 10.7532 15.2254 10.7532 15.5711 Z"
     style="fill:none;stroke:#231f20;stroke-width:0.0881944;stroke-linecap:butt;stroke-linejoin:miter;stroke-miterlimit:4;stroke-dasharray:none;stroke-opacity:1" />
  <path
     id="path253-3"
     d="M 11.4926 14.5541 C 11.4926 14.8998 11.2125 15.1802 10.8664 15.1802 C 10.5207 15.1802 10.2403 14.8998 10.2403 14.5541 C 10.2403 14.2087 10.5207 13.9279 10.8664 13.9279 C 11.2125 13.9279 11.4926 14.2087 11.4926 14.5541 Z"
     style="fill:none;stroke:#231f20;stroke-width:0.0881944;stroke-linecap:butt;stroke-linejoin:miter;stroke-miterlimit:4;stroke-dasharray:none;stroke-opacity:1" />
  <path
     id="path255-0"
     d="M 16.6601 17.9968 C 16.6601 18.3422 16.3796 18.623 16.0339 18.623 C 15.6882 18.623 15.4077 18.3422 15.4077 17.9968 C 15.4077 17.6511 15.6882 17.3703 16.0339 17.3703 C 16.3796 17.3703 16.6601 17.6511 16.6601 17.9968 Z"
     style="fill:none;stroke:#231f20;stroke-width:0.0881944;stroke-linecap:butt;stroke-linejoin:miter;stroke-miterlimit:4;stroke-dasharray:none;stroke-opacity:1" />
  <path
     id="path257-82"
     d="M 14.7195 16.6411 C 14.7195 16.9868 14.439 17.2676 14.0933 17.2676 C 13.7472 17.2676 13.4671 16.9868 13.4671 16.6411 C 13.4671 16.2954 13.7472 16.0149 14.0933 16.0149 C 14.439 16.0149 14.7195 16.2954 14.7195 16.6411 Z"
     style="fill:none;stroke:#231f20;stroke-width:0.0881944;stroke-linecap:butt;stroke-linejoin:miter;stroke-miterlimit:4;stroke-dasharray:none;stroke-opacity:1" />
  <path
     id="path259-1"
     d="M 15.3354 15.9331 C 15.3354 16.2784 15.0553 16.5589 14.7092 16.5589 C 14.3635 16.5589 14.0831 16.2784 14.0831 15.9331 C 14.0831 15.5873 14.3635 15.3065 14.7092 15.3065 C 15.0553 15.3065 15.3354 15.5873 15.3354 15.9331 Z"
     style="fill:none;stroke:#231f20;stroke-width:0.0881944;stroke-linecap:butt;stroke-linejoin:miter;stroke-miterlimit:4;stroke-dasharray:none;stroke-opacity:1" />
  <path
     id="path261-8"
     d="M 14.1649 15.5634 C 14.1649 15.9091 13.8844 16.1892 13.5387 16.1892 C 13.1927 16.1892 12.9125 15.9091 12.9125 15.5634 C 12.9125 15.2176 13.1927 14.9368 13.5387 14.9368 C 13.8844 14.9368 14.1649 15.2176 14.1649 15.5634 Z"
     style="fill:none;stroke:#231f20;stroke-width:0.0881944;stroke-linecap:butt;stroke-linejoin:miter;stroke-miterlimit:4;stroke-dasharray:none;stroke-opacity:1" />
  <path
     id="path263-12"
     d="M 15.9207 15.1933 C 15.9207 15.5387 15.6402 15.8198 15.2945 15.8198 C 14.9488 15.8198 14.6683 15.5387 14.6683 15.1933 C 14.6683 14.8479 14.9488 14.5675 15.2945 14.5675 C 15.6402 14.5675 15.9207 14.8479 15.9207 15.1933 Z"
     style="fill:none;stroke:#231f20;stroke-width:0.0881944;stroke-linecap:butt;stroke-linejoin:miter;stroke-miterlimit:4;stroke-dasharray:none;stroke-opacity:1" />
  <path
     id="path265-6"
     d="M 13.7123 14.4849 C 13.7123 14.7848 13.4689 15.0282 13.169 15.0282 C 12.8692 15.0282 12.6261 14.7848 12.6261 14.4849 C 12.6261 14.1858 12.8692 13.942 13.169 13.942 C 13.4689 13.942 13.7123 14.1858 13.7123 14.4849 Z"
     style="fill:none;stroke:#231f20;stroke-width:0.0881944;stroke-linecap:butt;stroke-linejoin:miter;stroke-miterlimit:4;stroke-dasharray:none;stroke-opacity:1" />
  <path
     id="path267-2"
     d="M 14.7904 14.8239 C 14.7904 15.1238 14.547 15.3672 14.2471 15.3672 C 13.9472 15.3672 13.7042 15.1238 13.7042 14.8239 C 13.7042 14.5241 13.9472 14.281 14.2471 14.281 C 14.547 14.281 14.7904 14.5241 14.7904 14.8239 Z"
     style="fill:none;stroke:#231f20;stroke-width:0.0881944;stroke-linecap:butt;stroke-linejoin:miter;stroke-miterlimit:4;stroke-dasharray:none;stroke-opacity:1" />
  <path
     id="path269-7"
     d="M 15.8378 17.1346 C 15.8378 17.4341 15.5944 17.6772 15.2945 17.6772 C 14.9946 17.6772 14.7512 17.4341 14.7512 17.1346 C 14.7512 16.8344 14.9946 16.5917 15.2945 16.5917 C 15.5944 16.5917 15.8378 16.8344 15.8378 17.1346 Z"
     style="fill:none;stroke:#231f20;stroke-width:0.0881944;stroke-linecap:butt;stroke-linejoin:miter;stroke-miterlimit:4;stroke-dasharray:none;stroke-opacity:1" />
  <path
     id="path271-0"
     d="M 16.3613 16.2407 C 16.3613 16.5409 16.1179 16.7843 15.818 16.7843 C 15.5185 16.7843 15.2751 16.5409 15.2751 16.2407 C 15.2751 15.9412 15.5185 15.6981 15.818 15.6981 C 16.1179 15.6981 16.3613 15.9412 16.3613 16.2407 Z"
     style="fill:none;stroke:#231f20;stroke-width:0.0881944;stroke-linecap:butt;stroke-linejoin:miter;stroke-miterlimit:4;stroke-dasharray:none;stroke-opacity:1" />
  <path
     id="path273-9"
     d="M 17.1007 16.9801 C 17.1007 17.28 16.8573 17.523 16.5574 17.523 C 16.2576 17.523 16.0145 17.28 16.0145 16.9801 C 16.0145 16.6802 16.2576 16.4372 16.5574 16.4372 C 16.8573 16.4372 17.1007 16.6802 17.1007 16.9801 Z"
     style="fill:none;stroke:#231f20;stroke-width:0.0881944;stroke-linecap:butt;stroke-linejoin:miter;stroke-miterlimit:4;stroke-dasharray:none;stroke-opacity:1" />
  <path
     id="path275-25"
     d="M 9.2747 14.3696 C 9.2747 14.7153 8.9946 14.9957 8.64852 14.9957 C 8.3028 14.9957 8.02234 14.7153 8.02234 14.3696 C 8.02234 14.0242 8.3028 13.7434 8.64852 13.7434 C 8.9946 13.7434 9.2747 14.0242 9.2747 14.3696 Z"
     style="fill:none;stroke:#231f20;stroke-width:0.0881944;stroke-linecap:butt;stroke-linejoin:miter;stroke-miterlimit:4;stroke-dasharray:none;stroke-opacity:1" />
  <path
     id="path277-57"
     d="M 8.41216 15.0783 C 8.41216 15.4237 8.13205 15.7041 7.78598 15.7041 C 7.44026 15.7041 7.1598 15.4237 7.1598 15.0783 C 7.1598 14.7322 7.44026 14.4517 7.78598 14.4517 C 8.13205 14.4517 8.41216 14.7322 8.41216 15.0783 Z"
     style="fill:none;stroke:#231f20;stroke-width:0.0881944;stroke-linecap:butt;stroke-linejoin:miter;stroke-miterlimit:4;stroke-dasharray:none;stroke-opacity:1" />
  <path
     id="path279-2"
     d="M 10.3221 14.3696 C 10.3221 14.7153 10.0416 14.9957 9.69592 14.9957 C 9.3502 14.9957 9.06974 14.7153 9.06974 14.3696 C 9.06974 14.0242 9.3502 13.7434 9.69592 13.7434 C 10.0416 13.7434 10.3221 14.0242 10.3221 14.3696 Z"
     style="fill:none;stroke:#231f20;stroke-width:0.0881944;stroke-linecap:butt;stroke-linejoin:miter;stroke-miterlimit:4;stroke-dasharray:none;stroke-opacity:1" />
  <path
     id="path281-7"
     d="M 9.52165 15.3333 C 9.52165 15.6794 9.24119 15.9595 8.89582 15.9595 C 8.54974 15.9595 8.26929 15.6794 8.26929 15.3333 C 8.26929 14.9876 8.54974 14.7079 8.89582 14.7079 C 9.24119 14.7079 9.52165 14.9876 9.52165 15.3333 Z"
     style="fill:none;stroke:#231f20;stroke-width:0.0881944;stroke-linecap:butt;stroke-linejoin:miter;stroke-miterlimit:4;stroke-dasharray:none;stroke-opacity:1" />
  <path
     id="path283-9"
     d="M 8.48695 16.0251 C 8.48695 16.3994 8.18321 16.7032 7.80926 16.7032 C 7.43497 16.7032 7.13158 16.3994 7.13158 16.0251 C 7.13158 15.6508 7.43497 15.3475 7.80926 15.3475 C 8.18321 15.3475 8.48695 15.6508 8.48695 16.0251 Z M 11.8754 17.4112 C 11.9368 17.9658 11.5364 20.6458 11.3208 20.9848 L 11.6288 21.2004 C 11.6288 21.2004 12.1527 19.6291 12.1834 19.3522 M 11.3208 20.9848 C 11.1053 21.4773 9.28776 24.5885 8.7025 25.5124 M 12.7997 21.2925 C 12.9535 22.0319 13.1383 23.6645 13.5387 24.5271 M 11.5364 21.1387 C 11.4132 21.6625 11.5057 24.6812 11.7212 25.5431 M 13.0152 21.1387 C 13.4463 21.6932 14.7092 23.6335 15.1714 23.9418 M 11.5364 21.1387 C 11.4439 21.9398 10.8894 25.6359 10.7662 26.4984 M 15.6949 26.7757 C 14.8631 25.5127 13.2921 23.0793 12.9224 21.1693 M 9.74989 25.9131 L 11.4132 21.0769 M 15.3869 24.9585 C 14.1854 23.5411 13.1383 21.8474 12.9224 21.1693 M 11.2594 3.42638 C 10.0886 3.30327 9.38018 3.21119 9.38018 3.21119 L 9.34949 2.68696 L 11.7826 2.99529 M 7.90169 3.21119 C 8.53846 2.94767 9.38019 2.81044 9.41088 3.05667 C 9.44192 3.30327 9.1029 3.58055 8.61007 3.70367 C 8.11724 3.82679 4.69812 5.18216 4.69812 5.18216 C 4.69812 5.18216 7.00846 3.58055 7.90169 3.21119 Z M 5.22164 4.96661 C 5.03679 5.15182 4.72881 6.72239 5.34476 7.55424 M 7.22401 4.22719 L 6.66944 6.22956 M 9.34949 2.68696 L 7.53198 1.23952 M 8.67181 2.90286 L 7.10053 1.5168 M 8.39452 3.27257 L 5.8069 3.05667 M 8.24036 3.11841 L 4.66707 1.54714 M 6.05349 4.41205 C 5.65273 4.31997 2.01807 3.91922 2.01807 3.91922 M 6.45354 4.04269 L 2.48021 3.33396 M 4.85193 5.12078 C 4.60569 5.24355 3.49656 8.29366 3.49656 9.12516 M 0.60131 6.53789 C 1.24795 6.2913 4.85193 5.12078 4.85193 5.12078 M 0.015699 6.50685 C 1.30933 6.01401 5.00574 4.99731 5.00574 4.99731 C 5.00574 4.99731 2.35673 6.87656 1.37142 7.76979 M 0.324027 5.30564 C 1.43281 5.42911 4.14355 5.36702 4.85193 5.12078 M 13.3539 3.54986 C 13.6312 3.45743 15.3562 3.33396 15.6949 3.42639 C 16.0339 3.51882 16.0029 2.93391 16.0029 2.93391 C 16.0029 2.93391 13.4999 2.94171 12.7908 3.09584 M 16.0029 3.33396 C 16.0029 3.84373 18.5598 4.2272 19.1451 4.68898 C 19.1451 4.68898 16.5268 3.14946 16.1877 2.9646 C 15.8491 2.7794 16.0029 3.18015 16.0029 3.33396 Z M 21.702 1.36264 C 21.702 1.36264 18.5288 4.16581 18.3132 4.1965 M 21.2702 8.01603 C 21.2702 8.01603 19.6686 5.05905 18.9913 4.62795 M 23.1495 4.59655 C 22.5028 4.65899 20.7774 5.6443 19.1451 4.68898 M 22.9032 7.21557 C 21.8865 6.47615 18.6212 4.38136 18.6212 4.38136 M 19.8841 8.41678 C 19.7921 7.43112 19.6072 5.12078 19.1451 4.68898 M 21.7941 7.9236 C 21.363 7.33869 19.3299 4.78176 18.4367 4.31997 M 23.7347 5.4598 C 23.1188 5.36702 19.9462 5.15182 19.2375 4.78176 M 21.1164 1.1164 C 21.1164 1.1164 17.9746 3.85783 17.6355 3.88852 M 17.2658 5.58256 C 17.0196 4.47378 16.804 3.64229 16.5574 3.39534 M 19.0526 2.19413 C 18.4984 2.28691 16.157 3.05667 15.8491 3.11841 M 17.2658 1.23952 C 16.9272 1.57818 15.7873 2.87217 15.6332 2.99529 M 12.2144 2.81044 L 11.0439 1.48576 C 11.0439 1.48576 11.4439 2.68696 11.7212 2.87217 M 12.4606 2.87217 C 12.4606 2.87217 13.0459 2.10171 13.1383 1.67061 L 12.8917 3.05667 M 10.489 2.84113 C 10.2734 2.59454 10.0886 2.25587 10.0886 2.16379 M 14.463 3.05667 C 14.6782 2.93391 15.1714 1.54714 15.2945 1.17778 M 11.1977 1.5168 C 11.3822 0.962232 11.6288 0.653905 11.6288 0.653905 M 13.3846 0.130383 C 13.3539 0.376974 13.2614 1.67061 13.0766 1.94754 M 12.861 0.715641 C 12.9535 1.02362 13.169 2.00963 13.0152 2.25587 M 13.7236 1.45506 C 13.477 1.67061 13.0152 2.16379 12.9535 2.37899 M 10.7356 0.007263 C 10.6738 0.376974 10.9511 1.70095 11.167 1.85547 M 11.2594 0.253855 C 11.1053 0.500094 10.9511 1.48576 11.167 1.70095 M 10.3348 1.23952 C 10.3969 1.60887 10.7049 2.84113 10.9204 2.90286 M 10.9818 2.16379 C 11.1053 2.44072 11.0128 2.65627 11.3822 2.93391 M 14.155 1.73199 C 13.9084 1.9172 13.477 2.84113 13.4156 3.08737 M 15.6949 2.10171 C 15.479 2.3483 15.2638 3.02598 14.9862 3.08737 M 14.2781 2.65627 C 14.0626 2.71801 13.9698 2.84113 13.8774 3.05667"
     style="fill:none;stroke:#231f20;stroke-width:0.0881944;stroke-linecap:butt;stroke-linejoin:miter;stroke-miterlimit:4;stroke-dasharray:none;stroke-opacity:1" />
</svg>
