<?xml version="1.0" encoding="UTF-8" standalone="no"?>
<!-- Created with Inkscape (http://www.inkscape.org/) -->

<svg
   width="36.74939mm"
   height="24.714485mm"
   viewBox="0 0 36.74939 24.714485"
   version="1.1"
   id="svg1"
   sodipodi:docname="08.svg"
   inkscape:version="1.4.2 (1:1.4.2+202505120738+ebf0e940d0)"
   xmlns:inkscape="http://www.inkscape.org/namespaces/inkscape"
   xmlns:sodipodi="http://sodipodi.sourceforge.net/DTD/sodipodi-0.dtd"
   xmlns="http://www.w3.org/2000/svg"
   xmlns:svg="http://www.w3.org/2000/svg">
  <sodipodi:namedview
     id="namedview1"
     pagecolor="#ffffff"
     bordercolor="#999999"
     borderopacity="1"
     inkscape:showpageshadow="2"
     inkscape:pageopacity="0"
     inkscape:pagecheckerboard="0"
     inkscape:deskcolor="#d1d1d1"
     inkscape:document-units="mm"
     inkscape:zoom="8.5430669"
     inkscape:cx="69.413011"
     inkscape:cy="46.704539"
     inkscape:window-width="1920"
     inkscape:window-height="1011"
     inkscape:window-x="0"
     inkscape:window-y="0"
     inkscape:window-maximized="1"
     inkscape:current-layer="svg1" />
  <defs
     id="defs1" />
  <path
     id="path519"
     d="M 9.6787 10.5484 C 9.6787 10.5484 9.93306 13.1336 9.84839 14.3623 C 9.76372 15.5914 9.38237 17.1168 8.66165 17.7101 C 7.94127 18.3032 6.62788 18.7695 6.54322 19.3625 C 6.4582 19.9559 6.7129 21.1 6.7129 21.1 C 6.7129 21.1 6.41586 18.9389 5.73782 19.1512 C 5.06014 19.3625 5.31449 20.846 5.61118 21.3124 M 7.55957 12.7945 C 7.55957 12.7945 7.43292 14.913 7.26323 15.5914 M 8.28029 16.4387 C 7.87248 16.6243 7.14082 17.1341 6.96337 17.6847 C 6.93868 17.7631 6.92492 17.8424 6.92492 17.9218 C 6.92492 17.9218 6.71255 17.4985 6.41586 17.3711 M 4.08541 12.9215 C 4.46677 13.8963 5.52616 16.0574 4.84812 16.7354 C 4.17043 17.4135 3.83106 16.6084 3.83106 16.6084 C 3.83106 16.6084 3.02637 14.4469 2.39067 13.9809 M 2.72898 13.0489 L 2.72898 14.3623 M 0.313513 12.4978 C 1.07622 13.0489 2.09363 14.5316 2.51767 15.6337 C 2.94135 16.7354 3.70441 17.7948 3.70441 17.7948 C 3.70441 17.7948 3.78943 17.4554 4.08541 17.4985 C 4.38245 17.5405 4.63575 17.2865 4.63575 17.2865 M 2.85633 10.6757 C 3.11033 11.4385 3.15302 12.2012 3.195 13.0062 C 3.23769 13.8116 3.49204 14.4896 3.66208 14.8286 C 3.83106 15.1673 4.00075 15.6337 4.00075 15.888 L 4.00075 16.1424 C 4.00075 16.1424 4.67914 16.2271 4.84812 16.7354 M 7.17822 19.0662 C 7.43292 19.3206 7.72961 19.9983 7.85731 20.5496 M 9.59404 17.8371 C 10.9928 16.9471 12.8996 15.5914 14.171 15.2104 C 15.442 14.8286 17.1375 14.659 17.0525 15.3793 C 16.9674 16.1001 16.4168 16.0574 16.4168 16.0574 C 16.4168 16.0574 16.464 16.5167 16.5872 16.6088 C 16.7844 16.7583 16.1236 17.1849 16.0199 17.1849 C 15.6121 17.1849 15.7627 17.5461 15.5987 17.8093 C 15.4403 18.0626 15.1591 18.2114 14.9764 18.4725 C 14.6793 18.8969 14.849 19.1932 14.341 19.1932 C 13.832 19.1932 13.9593 19.4052 13.5353 19.4052 L 13.1116 19.4052 C 13.1116 19.4052 13.3656 19.7866 12.6449 19.7866 C 11.9248 19.7866 12.6029 20.3796 9.89108 20.3796 M 17.5192 17.5828 C 17.5192 16.0574 17.6031 14.8286 18.1112 14.7016 C 18.6202 14.5743 18.7476 14.8286 18.7476 14.8286 C 18.7476 14.8286 19.2986 14.1079 19.2986 15.4217 M 17.7732 22.5407 C 18.3662 22.5407 19.8493 22.2864 20.2303 21.863 C 20.612 21.4394 20.9083 21.1427 20.1033 20.3796 C 19.2986 19.6169 19.0869 18.5998 19.426 17.4985 C 19.7643 16.3964 20.019 15.803 19.934 15.1673 C 19.8493 14.5316 19.4683 14.0659 19.2559 14.6166 M 20.697 14.7016 C 20.7813 13.7269 21.1207 12.4135 21.5021 13.3456 M 25.528 13.6846 C 25.528 13.6846 25.9936 14.0659 26.1206 14.1929 C 26.248 14.3203 26.0359 14.5743 25.6123 14.1503 M 20.1456 15.5487 C 20.5697 15.888 21.0787 16.6931 21.671 17.4134 C 21.9095 17.7031 22.1769 17.9881 22.4976 18.1871 C 22.6151 18.2601 23.0426 18.4679 23.061 18.215 C 23.0726 18.0488 22.7378 17.6953 22.6412 17.5807 C 22.4447 17.3447 22.2274 17.1221 22.0108 16.9047 C 20.9933 15.888 20.697 15.5279 20.697 15.5279 M 22.8655 17.8495 C 23.0211 17.9059 23.1926 17.9278 23.2035 17.7701 C 23.2151 17.6036 22.8807 17.2501 22.7848 17.1358 C 22.5875 16.8998 22.6087 16.9153 22.3918 16.6984 C 21.3743 15.6813 21.1838 15.4009 21.1838 15.4009 M 21.4597 14.659 C 21.4597 13.9809 21.5867 13.1755 22.0108 13.0062 M 22.1797 14.2353 C 22.2224 13.7689 22.4768 12.5825 22.9005 13.1762 M 22.9848 14.0233 C 22.9848 13.3876 23.3665 12.7099 23.6635 13.1762 M 23.6212 13.8116 C 23.6635 13.1762 24.1715 12.5402 24.4259 13.0909 M 24.2992 13.5572 C 24.4259 13.0909 24.6799 12.5825 24.9342 13.0489 M 26.8417 13.4302 C 26.8837 12.8369 27.2227 12.3285 27.6464 12.6675 M 27.4347 13.3876 C 27.4347 13.0274 27.392 12.7945 27.4979 12.731 M 27.9858 13.3032 C 27.9858 12.9639 28.1763 12.3285 28.8755 12.5825 M 28.6211 13.3032 C 28.6211 13.3032 28.5361 12.7518 28.7061 12.6675 M 15.442 21.524 C 15.442 20.2953 15.2731 19.4476 14.9764 19.4476 C 14.6793 19.4476 14.51 20.0833 14.51 20.931 M 16.2051 21.5664 C 16.2051 20.4223 16.1628 19.5746 16.5441 19.5746 C 16.9251 19.5746 17.0098 19.9983 17.0098 20.931 M 13.7466 21.185 C 13.7466 20.5066 13.7893 20.2526 13.7893 19.9139 C 13.7893 19.5746 13.9593 19.0235 14.2976 19.6169 M 13.4929 15.2947 L 13.4929 13.8539 M 14.2976 14.998 L 14.2976 13.7269 M 15.1454 14.871 L 15.1454 13.3032 M 15.8661 14.2776 L 15.8661 13.5146 M 16.1201 17.3711 L 16.1201 19.8713 M 16.9251 17.3711 L 16.9251 19.4476 M 15.315 18.7268 L 15.315 19.7439 M 2.26296 9.44667 C 2.55965 9.65869 2.45805 9.58672 2.5854 9.84072 M 4.12775 10.0824 C 4.12775 8.98065 4.7631 7.75157 5.82284 7.75157 C 6.88223 7.75157 7.51794 8.38728 7.51794 9.53169 C 7.51794 10.6757 6.5859 11.5231 5.69549 11.5231 C 4.80543 11.5231 4.12775 10.8451 4.12775 10.0824 Z M 4.97512 9.61636 C 4.97512 10.04 5.35647 10.4637 5.86518 10.4637 C 6.37353 10.4637 6.5859 9.91304 6.5859 9.57367 C 6.5859 9.235 6.28851 8.81097 5.73782 8.81097 C 5.3988 8.81097 4.97512 9.15034 4.97512 9.61636 Z M 10.1024 4.53142 C 10.6961 4.19205 13.1116 2.15793 13.9593 1.35289 C 14.8063 0.547499 16.0777 -0.765892 15.8237 0.717538 C 15.5687 2.20026 15.6541 3.42934 15.6541 3.42934 M 15.6325 3.30234 C 15.9938 2.73014 17.6455 1.22624 18.1112 0.971538 C 18.5779 0.717538 18.8319 0.717538 19.1504 0.781038 C 19.4683 0.844538 19.0869 1.03539 18.2389 1.56456 C 17.3911 2.09443 16.4168 3.13301 16.4168 3.13301 M 9.42506 21.6507 C 9.46739 21.1427 9.97574 20.634 10.1881 21.2273 M 16.1201 22.5407 C 16.2051 21.99 16.7985 21.4394 17.0098 22.3294 M 11.3742 21.863 C 11.5008 21.3967 11.9248 21.1427 12.0518 21.7357 M 10.2721 21.6087 C 10.1881 21.2273 10.7804 21.0153 11.0351 21.2273 M 12.2215 21.9481 C 12.4332 21.524 12.5605 21.2697 12.8145 21.863 M 13.7043 21.99 C 13.8743 21.6507 14.2133 21.3123 14.3403 21.6937 M 14.7217 21.9481 C 14.8913 21.7357 15.2307 21.7357 15.2731 21.905 M 12.9846 21.8207 C 13.1116 21.3543 13.2813 21.3124 13.4929 21.6507 M 13.6619 23.1344 C 13.8743 22.7527 14.3403 22.6257 14.5523 23.0494 M 15.3997 23.1764 C 15.6121 22.8378 16.0777 22.7104 16.3744 23.0071 M 12.6029 23.0071 C 12.8569 22.7527 13.2386 22.6677 13.3236 22.9221 M 6.4582 18.6849 C 5.78016 18.6849 4.38245 18.8969 3.61939 18.5155 C 2.85633 18.1342 2.34798 17.5405 2.34798 17.5405 M 3.70441 18.9812 C 3.78943 18.5998 4.25475 19.4052 4.25475 19.4052 C 4.12775 18.3455 5.18714 19.4476 5.31449 19.9559 M 18.3129 3.39442 C 18.375 3.34503 18.4364 3.29564 18.4985 3.24731 C 18.8104 3.00177 19.1275 2.764 19.4485 2.53011 C 19.717 2.33361 20.1908 2.11136 20.3566 1.83549 C 20.0356 1.46649 19.8927 1.61783 19.5473 1.87253 C 19.1995 2.12865 18.8428 2.37312 18.4957 2.63136 C 18.1609 2.88112 17.8254 3.13689 17.498 3.40359 M 19.4369 3.72215 C 19.7667 3.4558 20.1058 3.20286 20.4416 2.94533 C 20.5294 2.8776 20.9214 2.65499 20.9492 2.56962 C 20.9524 2.55974 20.951 2.54528 20.9471 2.52764 C 20.8812 2.24507 20.7616 2.20026 20.6275 2.25106 M 18.2568 2.81445 C 18.8086 2.39147 19.4866 1.99812 19.9664 1.50317 C 20.0744 1.38993 19.5963 1.27246 19.53 1.2901 M 17.685 2.62748 C 18.0078 2.37665 18.338 2.13535 18.6707 1.89758 C 18.8746 1.75294 19.4263 1.55221 19.5173 1.32044 C 19.5286 1.29116 19.5279 1.25729 19.5184 1.22025 C 19.4898 1.11618 19.3879 0.990588 19.2683 0.892163 M 18.5945 3.82375 C 18.7567 3.68722 18.9201 3.55246 19.0852 3.41946 C 19.4217 3.14888 19.7671 2.88924 20.1093 2.62536 C 20.2063 2.54987 20.5884 2.34667 20.6247 2.24401 C 20.6289 2.23201 20.6286 2.21367 20.624 2.19074 C 20.576 1.95755 20.4113 1.93004 20.1999 2.00765 M 19.3833 6.3955 C 19.3833 6.3955 22.148 5.62256 21.9578 4.2238 C 21.9243 3.98214 21.864 3.87172 21.7751 3.84985 C 21.6777 3.82657 21.5454 3.90806 21.3736 4.03753 C 21.0879 4.25519 20.7937 4.46086 20.51 4.68241 M 20.5376 4.65701 C 20.8223 4.44146 21.1066 4.21709 21.4001 4.01389 C 21.4879 3.95322 21.7144 3.85973 21.755 3.75954 C 21.8619 3.48543 21.7451 3.40712 21.585 3.41594 C 21.4453 3.42335 21.2717 3.49778 21.1838 3.56587 C 20.8755 3.80575 20.5665 4.05164 20.2666 4.30141 M 20.1742 4.37055 C 20.4829 4.1162 20.7947 3.85444 21.1168 3.61737 C 21.2392 3.52706 21.4982 3.44063 21.5229 3.26812 C 21.5994 2.71673 21.065 3.00812 20.8886 3.1577 C 20.5908 3.41029 20.2793 3.65089 19.9766 3.89924 M 19.6016 4.25802 C 20.0278 3.89924 20.4522 3.54011 20.8536 3.15841 C 20.9129 3.10161 21.0964 2.93157 21.1673 2.7887 C 21.2269 2.66805 21.2054 2.56609 20.9602 2.56821 M 20.7175 5.03977 C 21.0149 4.74273 21.9257 3.93805 21.9469 4.34057 M 25.347 13.7178 C 25.3685 13.7432 25.3865 13.7657 25.3992 13.7844 C 25.5354 13.9739 25.674 14.2085 25.7068 14.4596 C 25.7827 15.0477 24.9667 14.1185 24.8605 13.9901 M 23.2822 14.2776 C 23.4903 14.4907 23.6053 14.605 23.8067 14.8223 C 24.0181 15.0491 24.259 15.4545 24.5511 15.5878 C 24.9413 15.3095 24.7928 15.216 24.5158 14.9165 C 24.2417 14.6251 24.1295 14.5055 23.854 14.2141 M 22.6373 14.9779 C 22.9202 15.2523 23.1926 15.5388 23.4681 15.8217 C 23.5407 15.8958 23.7923 16.2444 23.8727 16.2528 C 23.8829 16.2539 23.8949 16.2493 23.9108 16.2412 C 24.1623 16.1114 24.2022 15.9963 24.1412 15.8739 M 23.7009 14.0377 C 24.083 14.4554 24.4548 14.9186 24.9138 15.2742 C 25.033 15.3596 25.1896 15.0259 25.1773 14.9846 M 24.531 14.272 C 24.6838 14.4399 24.8806 14.8618 25.1424 14.9698 C 25.1759 14.9839 25.2172 14.9761 25.2591 14.9916 C 25.372 15.0318 25.522 14.6999 25.299 14.4434 M 22.8885 14.5729 C 23.1774 14.8544 23.4557 15.1465 23.7387 15.434 C 23.8187 15.5159 24.0452 15.8506 24.1479 15.8708 C 24.1599 15.8726 24.1782 15.8697 24.2004 15.862 C 24.4273 15.7858 24.4537 15.6408 24.368 15.458 M 23.1456 17.5609 C 23.3524 17.5655 23.3707 17.3976 23.3188 17.2173 C 23.2737 17.0593 23.1749 16.891 23.1019 16.8169 C 22.8461 16.5594 22.5854 16.3026 22.3254 16.0563 M 22.2499 15.9784 C 22.5173 16.232 22.7897 16.4857 23.0469 16.7608 C 23.1446 16.866 23.2762 17.127 23.4084 17.0893 C 23.8399 16.9714 23.5146 16.497 23.3538 16.3488 C 23.0892 16.105 22.8317 15.8433 22.5699 15.5935 M 22.2037 15.3007 C 22.5798 15.6485 22.9558 15.9957 23.3467 16.311 C 23.4053 16.358 23.5792 16.5037 23.7125 16.5375 C 23.8265 16.5668 23.909 16.5146 23.8755 16.2634 M 36.6073 7.52615 C 36.7727 7.39245 36.7124 7.22064 36.5523 7.07036 C 36.5523 7.07036 36.3822 6.93666 35.9853 7.15891 M 31.0493 10.4831 C 31.8444 10.4038 32.6417 10.3459 33.4143 10.1314 C 34.1421 9.92962 34.8021 9.6086 35.5034 9.34295 C 35.8058 9.22795 36.1921 9.11577 36.3607 8.81202 C 36.4605 8.6307 36.4605 8.37634 36.4605 8.17526 C 36.4605 8.09871 36.4612 8.01087 36.4295 7.9456 C 35.2671 8.63952 34.1696 9.30662 32.8742 9.72219 C 32.5112 9.83896 32.091 9.87459 31.7217 9.97055 C 31.4934 10.0302 31.2634 10.0838 31.0327 10.1349 M 36.2715 8.96654 C 36.2397 9.31826 35.9409 9.64634 35.7208 9.90317 C 35.7208 9.90317 35.671 9.9582 35.186 10.1565 M 34.9863 10.898 C 35.1958 10.8066 35.2301 10.6003 35.3433 10.4235 C 35.4227 10.3 35.5465 10.178 35.6026 10.0422 C 34.0821 10.4972 32.6953 10.6796 31.0927 10.7706 M 34.9161 11.5228 C 34.9362 11.4508 35.029 10.8835 35.0854 10.8772 C 33.9675 11.0127 32.8541 11.056 31.7291 11.0885 M 35.1443 12.3031 C 35.0378 12.2851 34.9376 11.6297 34.933 11.5355 C 34.927 11.4236 31.8536 11.4353 31.5658 11.4349 C 31.3989 11.4346 31.2303 11.4303 31.063 11.4384 M 30.4168 13.0457 C 31.4645 13.4761 32.4985 13.9844 33.464 14.5753 C 33.8662 14.8212 34.2486 15.2082 34.7171 15.2886 C 34.9358 15.3257 35.1496 15.3684 35.3722 15.3758 C 35.4227 15.3772 35.9592 15.2922 35.9494 15.2819 C 35.8379 15.1694 35.7105 15.0449 35.5839 14.9447 C 35.4301 14.8226 35.2689 14.7094 35.1034 14.6039 C 34.7192 14.3587 34.3114 14.1499 33.9026 13.9491 C 33.1515 13.5808 32.3845 13.2471 31.6028 12.9487 C 31.3615 12.8566 31.1184 12.7673 30.8757 12.6788 C 32.2971 13.179 33.6817 13.7943 34.9895 14.5443 C 35.1595 14.642 35.3281 14.7422 35.4823 14.8639 C 35.6382 14.986 35.7874 15.2001 35.9945 15.2357 C 36.1928 15.2685 36.3335 15.0498 36.3335 14.871 C 36.3335 14.1319 35.7677 13.825 35.1539 13.5921 C 34.7383 13.4348 34.3428 13.257 33.917 13.1272 C 33.1719 12.9007 32.4322 12.6541 31.6716 12.4816 C 31.4719 12.4364 31.2684 12.3715 31.0645 12.3444 C 32.3563 12.6153 33.656 12.9811 34.8833 13.4687 C 35.2939 13.632 35.6844 13.8327 36.0824 14.0236 C 35.9942 13.7442 35.8439 13.4221 35.6604 13.1896 C 35.4188 12.8834 35.0964 12.8502 34.7482 12.7299 C 34.4222 12.6174 34.068 12.5359 33.7315 12.459 C 33.1144 12.3183 32.4974 12.1814 31.8787 12.0487 C 31.6836 12.0064 31.4857 11.9612 31.2881 11.9316 C 32.3648 12.1415 33.4411 12.3669 34.4984 12.6612 C 34.8325 12.7539 35.163 12.8891 35.5003 12.9645 C 35.3846 12.6753 35.217 12.3384 34.9115 12.2117 C 34.6152 12.0886 34.2927 12.0755 33.9812 12.0138 C 33.4658 11.9112 32.9395 11.8025 32.4124 11.8036 M 31.0814 9.75321 C 32.3948 9.24345 33.7149 8.72592 34.9623 8.06905 C 35.3193 7.88067 35.6936 7.67923 36.0143 7.43334 C 35.5613 7.16347 34.7475 7.44251 34.2991 7.58257 C 32.9437 8.0059 30.2739 9.15031 30.2739 9.15031 C 30.2739 9.15031 30.4065 9.08293 29.6488 9.18912 C 29.5592 9.20217 29.4586 9.21664 29.3415 9.23498 C 28.2394 9.40434 26.2903 9.19232 24.9762 8.76863 C 23.6635 8.3453 19.2559 6.43818 17.3065 5.37844 C 15.3574 4.3194 15.6541 3.42934 15.6541 3.42934 C 15.6541 3.42934 14.9337 3.51436 14.5523 3.64136 C 14.171 3.76871 13.1959 3.81069 11.8402 4.02271 C 10.4837 4.23438 9.04335 5.12409 8.49302 5.25144 C 7.94127 5.37844 7.72961 5.46346 7.2209 5.67548 C 6.71255 5.88714 6.28851 6.31118 5.78016 6.3955 C 5.27216 6.48052 5.31449 6.56518 4.72077 6.98887 C 3.65573 7.74981 2.94135 8.50193 1.88161 9.98501 C 1.88161 9.98501 2.77167 10.9297 2.77167 11.6078 C 2.77167 12.2862 2.72898 13.0489 2.72898 13.0489 C 1.92394 12.9215 1.50096 12.3285 1.24626 11.8621 C 0.991904 11.3965 0.695218 11.2264 0.271179 11.5655 C -0.151801 11.9041 0.144885 12.2435 0.144885 12.2435 C 0.144885 12.2435 0.610552 13.0062 0.865257 13.9389 C 1.11926 14.871 1.24626 15.888 1.37326 16.3117 C 1.50096 16.7354 2.89902 18.8119 3.70441 19.7866 C 4.5091 20.7613 5.44149 22.117 5.44149 22.117 L 6.54322 22.117 C 7.64494 22.117 9.29735 22.8378 10.3571 23.2191 C 11.4168 23.6005 14.2976 24.3205 15.1453 24.3205 C 16.0777 24.3205 17.6878 24.6599 17.6878 24.6599 C 17.6878 24.6599 17.6458 22.8378 17.7301 20.3796 C 17.8155 17.9218 18.1965 17.3288 18.8319 16.9047 C 19.4683 16.4807 19.9339 15.5487 19.9339 15.5487 C 19.9339 15.5487 20.7397 15.083 22.7731 14.3203 C 24.8072 13.5572 27.9004 13.5146 28.5784 13.5146 C 29.0046 13.5146 29.3478 13.4983 29.6487 13.5601 C 29.8258 13.596 29.9892 13.6592 30.1469 13.7689 C 30.5706 14.0656 31.7566 14.4473 32.4773 14.7016 C 32.8089 14.8184 33.1388 14.9422 33.4767 15.0417 C 33.644 15.0915 33.8136 15.1356 33.9854 15.1687 C 34.0906 15.1892 34.2246 15.1966 34.3252 15.185 M 14.5996 3.62019 C 14.5996 3.62019 15.3235 1.36418 15.7758 0.187666 C 15.9349 -0.22579 15.1242 2.82539 15.1559 3.47697 M 14.4567 3.66782 C 14.2976 3.52494 14.2161 2.42675 14.2821 1.6972 C 14.4567 -0.241665 14.0119 2.63489 13.7893 3.73132 M 13.7737 3.74966 C 13.6143 3.80364 13.4697 2.98096 13.5353 2.36289 C 13.7099 0.72036 13.2661 2.92769 13.0431 3.85691 C 12.902 3.89712 12.7733 3.28329 12.8315 2.82256 C 12.9867 1.59666 12.6473 3.20392 12.4498 3.89712 M 12.2646 3.9705 C 12.1238 3.99661 11.994 3.60714 12.0529 3.31469 C 12.2081 2.53681 11.8687 3.55634 11.6712 3.99661 M 9.78454 18.1127 C 10.8019 17.4985 14.3188 14.7009 16.7558 14.9345 M 9.82687 18.494 C 10.8228 17.816 15.9931 14.4896 17.0098 15.1673 M 9.82687 18.8119 C 11.5223 17.9006 16.6919 14.7225 17.0098 15.5279 M 9.82687 19.172 C 10.8228 18.6214 15.315 15.9515 16.4168 16.0574 M 9.80641 19.4091 C 11.1833 18.7103 15.72 16.1438 16.5872 16.6088 M 9.86956 19.655 C 11.8617 18.7646 15.6502 16.6292 16.3282 16.9898 M 10.2209 19.7732 C 12.0649 18.9262 14.4673 17.6043 15.6749 17.6043 M 10.6368 19.8159 C 11.6959 19.3075 14.51 18.0492 15.2304 18.1342 M 10.8485 19.8794 C 11.9079 19.371 14.0856 18.5998 14.8063 18.6849 M 10.954 20.1126 C 12.0137 19.6038 12.7306 19.3206 13.4506 19.4052"
     style="fill:none;stroke:#231f20;stroke-width:0.0881944;stroke-linecap:butt;stroke-linejoin:miter;stroke-miterlimit:4;stroke-dasharray:none;stroke-opacity:1" />
</svg>
