<?xml version="1.0" encoding="UTF-8" standalone="no"?>
<!-- Created with Inkscape (http://www.inkscape.org/) -->

<svg
   width="38.906979mm"
   height="15.662118mm"
   viewBox="0 0 38.90698 15.662118"
   version="1.1"
   id="svg1"
   sodipodi:docname="09.svg"
   inkscape:version="1.4.2 (1:1.4.2+202505120738+ebf0e940d0)"
   xmlns:inkscape="http://www.inkscape.org/namespaces/inkscape"
   xmlns:sodipodi="http://sodipodi.sourceforge.net/DTD/sodipodi-0.dtd"
   xmlns="http://www.w3.org/2000/svg"
   xmlns:svg="http://www.w3.org/2000/svg">
  <sodipodi:namedview
     id="namedview1"
     pagecolor="#ffffff"
     bordercolor="#999999"
     borderopacity="1"
     inkscape:showpageshadow="2"
     inkscape:pageopacity="0"
     inkscape:pagecheckerboard="0"
     inkscape:deskcolor="#d1d1d1"
     inkscape:document-units="mm"
     inkscape:zoom="8.2586816"
     inkscape:cx="78.220717"
     inkscape:cy="28.939244"
     inkscape:window-width="1920"
     inkscape:window-height="1011"
     inkscape:window-x="0"
     inkscape:window-y="0"
     inkscape:window-maximized="1"
     inkscape:current-layer="svg1" />
  <defs
     id="defs1" />
  <path
     id="path523"
     d="M 0.0098126 8.38854 C 0.0098126 8.38854 0.966546 8.17017 0.976776 7.69428 C 0.985949 7.21873 0.429971 6.73084 0.429971 6.73084 C 2.62989 3.91956 10.6432 0.59145 15.7201 0.694814 C 20.7951 0.798531 21.7162 2.325 24.2386 3.17096 C 26.7602 4.01551 28.8109 4.61241 29.7493 5.26681 C 30.6884 5.92051 33.2252 6.0521 33.1991 7.32033 C 33.1727 8.58998 31.9912 9.59716 30.2175 9.56153 C 27.8112 9.51214 23.5595 13.0748 21.9639 13.5183 C 20.3676 13.9617 17.5577 15.5715 12.2441 15.4617 C 6.9299 15.3531 4.82982 13.3267 3.43387 11.7117 C 2.03828 10.096 0.638815 8.71874 0.32449 8.55435 M 4.44811 6.07221 C 4.44141 6.39359 4.15213 6.64794 3.80217 6.64159 C 3.45116 6.63418 3.17247 6.36819 3.17917 6.04716 C 3.18587 5.72543 3.47515 5.47142 3.82546 5.47813 C 4.17612 5.48589 4.45481 5.75153 4.44811 6.07221 Z M 16.3642 7.95604 C 16.3201 10.1235 15.61 11.2203 14.7111 11.2023 C 13.8122 11.1836 13.1466 10.1112 11.9309 10.0868 M 12.1171 6.12336 C 13.6129 5.41392 14.8445 4.69849 15.4262 4.70943 C 16.0072 4.72213 16.409 5.78822 16.3642 7.95604 M 12.0494 6.86243 C 12.5154 7.3475 13.1857 8.20863 12.3736 9.09128 M 26.3923 3.87616 C 27.4806 2.41637 29.2219 0.0195976 30.438 0.044292 C 31.6543 0.0686337 31.691 0.862736 31.6596 2.39591 C 31.6286 3.92908 31.1442 4.28997 30.6161 4.27974 C 30.0873 4.2681 29.3824 5.1003 29.3824 5.1003 M 32.9501 6.54916 C 35.1278 6.11701 37.26 5.31409 38.1384 6.33785 C 39.0172 7.36055 39.0563 7.99555 38.4587 8.77801 C 37.8611 9.55871 36.9675 9.27578 35.4926 8.98086 C 34.0169 8.68699 33.4457 8.19875 32.6964 8.60656 M 30.1875 9.71957 C 31.5869 11.1229 33.0855 12.8466 32.851 14.0051 C 32.616 15.1647 32.9183 15.8579 31.4448 15.5111 C 29.9712 15.1629 28.7199 14.2383 27.6905 12.8424 C 26.6611 11.4461 26.4576 11.0189 26.0307 11.2217 M 8.07184 7.36337 C 7.74446 7.83257 7.99282 8.6309 8.4158 8.64043 C 8.83843 8.64819 8.95978 7.90982 8.9739 7.22297 C 8.98589 6.64088 8.84654 5.68627 8.5294 5.67956 C 8.2119 5.67321 7.71801 6.56221 8.18614 6.94216 M 26.8435 3.80561 C 27.6009 2.7501 29.4893 0.646484 30.6013 0.0552281 M 27.2912 3.92026 C 28.0525 2.86052 30.0697 0.779128 31.2141 0.213625 M 27.6556 4.21836 C 28.4222 3.1505 30.4245 1.14214 31.5513 0.6232 M 28.1008 4.41344 C 28.7852 3.46094 30.4644 1.82264 31.6236 1.12626 M 28.6293 4.42368 C 29.2262 3.59288 30.5784 2.40261 31.6818 1.71893 M 28.86 4.79903 C 29.4572 3.96718 30.6666 2.97164 31.6734 2.41954 M 29.4181 4.67838 C 29.889 4.02151 30.7576 3.5121 31.606 3.18578 M 29.7627 9.81624 C 31.194 11.3914 32.2509 12.6289 32.8672 13.6975 M 29.2569 9.99051 C 30.9784 11.8874 32.2798 13.2724 32.8136 14.4817 M 29.0127 10.2505 C 30.765 12.1806 32.1475 14.028 32.6675 15.2818 M 28.4829 10.3193 C 30.2369 12.2508 31.7122 14.3798 32.2385 15.6452 M 28.1301 10.7349 C 29.8139 12.5891 30.9798 14.2574 31.5372 15.5051 M 27.5709 10.9077 C 29.3821 12.902 30.415 14.1399 30.8916 15.3929 M 27.0121 11.1088 C 28.5576 12.8117 29.4992 13.9261 30.0386 14.9714 M 33.1829 8.11373 C 33.832 8.1924 36.1314 8.46404 37.6082 9.30294 M 33.2104 6.76506 C 33.8267 6.71673 35.9222 6.55481 37.4254 5.88135 M 33.3671 7.90383 C 34.0941 7.96839 36.8899 8.2118 38.2915 8.96886 M 33.3858 6.98202 C 34.0733 6.94992 36.6087 6.83279 38.0939 6.23237 M 33.3713 7.70521 C 34.1605 7.74825 37.1499 7.91159 38.736 8.33774 M 33.3822 7.18134 C 34.1382 7.1704 36.9157 7.13266 38.5571 6.81163 M 33.4648 7.51471 C 34.2705 7.53941 37.4367 7.6336 38.9025 7.78318 M 33.4676 7.37537 C 34.2585 7.38348 37.3256 7.41699 38.8291 7.33374 M 12.5645 6.2934 C 13.3991 5.91734 14.9214 5.29468 15.906 5.00223 M 12.6562 6.61725 C 13.4549 6.32268 14.8868 5.8489 15.8957 5.60619 M 12.5377 7.00142 C 13.3244 6.76224 15.0667 6.31174 16.1801 6.13782 M 12.8622 7.25683 C 13.7639 7.06563 15.3539 6.78341 16.3635 6.70615 M 12.8813 7.59585 C 13.7727 7.47026 15.3539 7.3034 16.378 7.29141 M 13.0866 7.92041 C 14.0179 7.86326 15.4019 7.81634 16.3551 7.87631 M 13.3427 8.27354 C 14.244 8.29012 15.4925 8.34727 16.3529 8.45557 M 12.9659 8.61291 C 13.8574 8.68206 15.3073 8.84045 16.2729 9.0306 M 13.0901 8.9805 C 13.9777 9.11844 15.2879 9.3608 16.1759 9.6021 M 12.6061 9.23909 C 13.4185 9.41195 14.9489 9.79295 15.9652 10.1404 M 12.5225 9.55589 C 13.3049 9.78202 14.7376 10.2484 15.7204 10.6569 M 12.3066 9.82823 C 12.9836 10.0713 14.2786 10.5909 15.253 11.0591"
     style="fill:none;stroke:#231f20;stroke-width:0.0881944;stroke-linecap:butt;stroke-linejoin:miter;stroke-miterlimit:4;stroke-dasharray:none;stroke-opacity:1" />
</svg>
