<svg version="1.1" id="Layer_1" xmlns="http://www.w3.org/2000/svg" xmlns:xlink="http://www.w3.org/1999/xlink" x="0px" y="0px"
	 width="100%" viewBox="0 0 592 592" enable-background="new 0 0 592 592" xml:space="preserve">
<path fill="#000000" opacity="1.000000" stroke="none" 
	d="
M403.609497,368.579895 
	C400.714478,369.455475 398.197205,370.227264 395.578705,371.030090 
	C395.101532,373.996979 396.027710,376.283142 398.106232,378.477295 
	C405.218170,375.487671 410.533417,370.118652 416.293304,365.503723 
	C419.932861,362.587616 423.262115,361.867981 427.211365,364.116913 
	C430.381927,365.922363 433.426666,367.949554 436.605682,369.739014 
	C442.413635,373.008240 445.042175,372.498138 448.669922,366.959595 
	C450.375275,364.356018 452.578461,362.458435 455.040253,360.778168 
	C456.467865,359.803711 458.031219,358.268829 459.888763,360.084595 
	C461.672485,361.828156 462.133636,364.250946 460.585846,365.945068 
	C456.205353,370.739746 452.244324,375.828339 448.489410,381.106689 
	C447.273315,382.816193 445.622711,382.184296 443.959747,381.712646 
	C437.813354,379.969513 432.425232,376.586304 426.865875,373.652130 
	C423.136993,371.684082 420.320007,372.280609 417.312012,374.717163 
	C412.412964,378.685516 407.414917,382.531372 402.481506,386.457672 
	C396.829956,390.955505 394.321564,390.345123 391.351898,383.708252 
	C391.148529,383.253693 390.875885,382.829681 390.629517,382.394836 
	C388.922546,379.382202 389.590759,374.419373 386.482910,373.226013 
	C383.680969,372.150085 379.730835,373.673737 376.386627,374.469177 
	C362.981079,377.657715 349.271545,378.955902 335.691803,380.998108 
	C324.728210,382.646881 313.615570,383.323517 302.561218,384.346497 
	C271.403717,387.229980 240.169724,387.774292 208.902893,387.408478 
	C203.604065,387.346466 198.815842,389.179535 194.591507,392.421417 
	C193.276093,393.430908 191.997253,394.520996 190.569534,395.345398 
	C184.972061,398.577545 182.213516,397.591187 179.926300,391.664398 
	C179.329742,390.118591 178.757019,388.562927 178.128082,387.030396 
	C176.347702,382.692017 173.161087,382.084503 169.247177,383.866669 
	C166.220047,385.244995 163.314056,386.889709 160.284912,388.263153 
	C157.721771,389.425262 155.111130,390.532166 152.431717,391.379578 
	C140.893539,395.028839 136.733109,391.199127 139.155518,379.265320 
	C140.411911,373.075714 139.388962,371.338989 133.120804,370.570984 
	C129.809006,370.165192 126.593254,369.527222 123.375443,368.734100 
	C117.170128,367.204651 112.466949,359.354980 113.675018,352.899963 
	C114.092056,350.671661 115.802780,350.520355 117.204727,349.899872 
	C124.180702,346.812286 131.212021,343.850006 138.204239,340.798676 
	C139.709534,340.141754 141.302231,339.552734 142.036697,337.823181 
	C145.777985,329.012970 149.544708,320.213593 153.414566,311.147888 
	C150.394653,309.729401 147.389786,309.951904 144.858032,310.591553 
	C139.121811,312.040802 133.217255,310.592194 127.510231,312.195923 
	C125.203979,312.843964 122.697105,311.991913 121.822090,309.330719 
	C121.074516,307.057098 121.378120,305.062866 123.446098,303.110596 
	C137.339508,289.994751 151.038742,276.664795 166.124908,264.891693 
	C169.945862,261.909882 173.791626,258.839783 178.966812,257.673218 
	C163.968430,273.054077 147.176620,286.583191 133.293167,303.604370 
	C137.444687,305.381165 141.321686,304.949677 144.916489,304.369537 
	C148.243515,303.832550 151.530472,303.904083 154.827087,303.616272 
	C159.443390,303.213196 160.586761,305.484039 159.156677,309.273407 
	C155.286835,319.527557 153.513123,330.391144 149.740646,340.689514 
	C148.243469,344.776611 145.759262,346.922882 142.019257,348.368469 
	C136.752655,350.404114 131.293854,351.989349 126.359894,354.827148 
	C124.788383,355.730988 123.218002,356.664948 122.098595,358.478333 
	C124.429131,360.598663 127.215569,361.276886 130.194366,361.660278 
	C133.306946,362.060852 136.411148,362.591156 139.481796,363.240601 
	C147.649704,364.968048 148.171204,366.037567 148.487778,374.757935 
	C148.579910,377.295929 145.429489,380.627472 149.012466,382.313141 
	C151.382004,383.427948 153.923782,380.838776 156.544296,380.322784 
	C158.604309,379.917145 160.546066,378.654694 161.481827,375.990417 
	C149.526794,361.810516 155.399231,347.154907 161.210251,332.629791 
	C168.593857,314.173828 180.252243,298.533417 193.776184,284.158752 
	C196.942017,280.793762 199.757736,277.101501 203.336319,274.125977 
	C205.549438,272.285828 207.455399,269.333801 210.795319,272.476532 
	C214.208237,275.687927 210.668076,277.811127 209.221832,279.493256 
	C199.477020,290.827362 189.900482,302.270508 181.934769,314.960785 
	C174.738968,326.424500 169.317581,338.637207 166.622711,351.968079 
	C164.645767,361.747620 168.317993,367.898621 178.231033,371.515167 
	C183.261902,373.350555 188.585846,374.317993 193.796921,374.489166 
	C210.559921,375.039978 227.257767,377.759430 244.053558,376.594330 
	C265.375793,375.115265 286.732880,374.425873 308.017029,371.946472 
	C331.545441,369.205627 354.883514,365.437469 378.240601,361.665253 
	C379.919342,361.394135 381.391693,360.973877 382.782379,360.007721 
	C381.859222,356.915619 379.436737,357.453979 377.400848,357.428192 
	C371.914948,357.358673 366.430969,357.474976 361.066620,355.965881 
	C353.941956,353.961548 353.041382,351.433136 357.404114,345.499847 
	C358.071991,344.591553 358.599274,343.579865 359.234406,342.546356 
	C357.582031,342.140839 356.208374,341.717438 354.803558,341.473083 
	C346.391449,340.010101 345.938965,339.826996 345.732330,331.351257 
	C345.343414,315.399231 345.580627,299.449646 347.571564,283.580078 
	C348.008911,280.093842 347.279999,277.227051 344.609619,274.565216 
	C338.734955,268.709381 333.198395,262.514801 327.505188,256.476074 
	C326.620972,255.538193 325.966003,254.233475 323.953644,254.237640 
	C320.649963,259.156219 319.213257,265.191528 316.469208,270.598816 
	C312.186066,279.038910 308.321381,287.692230 304.327240,296.277466 
	C303.323883,298.434174 301.982025,300.288757 300.179382,301.822235 
	C295.939178,305.429443 293.049988,305.104309 289.860687,300.498840 
	C279.831421,286.016174 270.790436,270.964935 264.418579,254.477783 
	C263.268982,251.503174 260.389191,247.966187 265.058136,244.593750 
	C275.559479,260.558655 282.649536,278.241364 294.574677,293.668427 
	C299.320465,290.243652 301.085327,285.135498 303.639130,280.738800 
	C309.139343,271.269501 314.143036,261.511688 319.647034,252.044708 
	C322.867157,246.505981 324.563812,246.377762 329.056976,250.938751 
	C335.091522,257.064453 340.904968,263.408020 347.045959,269.904114 
	C347.990723,268.529236 348.471222,268.152252 348.486847,267.756897 
	C348.624725,264.263275 348.828369,260.790039 353.582886,260.781860 
	C358.370056,260.773621 362.008789,264.015228 362.270477,268.597900 
	C362.469727,272.086700 362.680786,275.637787 362.259827,279.084656 
	C361.585510,284.605804 363.706177,288.770111 367.504730,292.410492 
	C368.465790,293.331543 369.337799,294.344818 370.270905,295.295929 
	C372.036926,297.095978 373.427521,299.490051 371.546967,301.439636 
	C369.287842,303.781708 367.452545,301.160919 365.699585,299.749512 
	C364.573822,298.843109 363.891296,297.315155 361.783234,297.137024 
	C361.783234,310.657898 361.783234,324.112488 361.783234,338.815918 
	C366.243530,332.383270 371.710541,328.369202 374.428497,322.118164 
	C375.469635,319.723663 375.928314,317.343445 375.492401,314.834473 
	C373.737579,304.734314 375.035675,294.562012 374.707916,284.429565 
	C374.670532,283.274323 374.718964,282.032196 376.505829,281.549591 
	C378.790802,285.838867 379.047424,290.709167 379.180908,295.310730 
	C379.432129,303.970856 380.949524,312.440094 381.994476,320.979889 
	C382.322845,323.663239 381.577759,325.941559 380.096558,327.957031 
	C377.640564,331.298798 374.994476,334.503357 372.372192,337.719818 
	C369.840668,340.824890 368.215820,344.134888 368.816742,348.431213 
	C372.958923,348.127350 372.319122,342.851959 376.198822,343.149628 
	C378.687042,344.978210 376.094666,347.366577 376.563263,349.479492 
	C380.685211,351.123993 380.284698,345.660187 383.342072,345.537048 
	C384.874878,350.267853 390.239929,352.401276 391.706024,357.484436 
	C392.155640,359.043365 394.240601,358.685364 395.742126,358.386597 
	C399.153290,357.707825 402.623779,357.231750 405.954865,356.272797 
	C409.162323,355.349487 411.843414,355.863586 413.003113,358.956024 
	C414.249725,362.280060 412.931793,365.304779 409.717377,366.944366 
	C407.994995,367.822876 405.909058,367.988647 403.609497,368.579895 
z"/>
<path fill="#000000" opacity="1.000000" stroke="none" 
	d="
M414.637543,265.340088 
	C403.254242,250.334656 388.099548,242.412491 370.326447,238.263885 
	C354.018158,234.457199 337.529144,231.907745 321.024170,229.319870 
	C318.957031,228.995758 315.994202,229.012421 316.036865,226.308197 
	C316.086548,223.160706 319.153900,222.833755 321.661469,222.702026 
	C339.626831,221.758255 356.958649,225.149750 373.957031,230.594086 
	C380.727173,232.762466 387.331787,235.478912 394.159210,237.429932 
	C405.717651,240.732864 413.386261,248.845947 420.389832,257.834473 
	C433.835419,275.090790 443.430542,294.635132 453.496155,313.898773 
	C456.108246,318.897858 458.920532,323.793335 461.682953,328.712708 
	C465.512360,335.532227 477.161591,340.906525 484.941437,339.306946 
	C486.757660,338.933533 488.532959,338.516663 490.358337,338.758240 
	C495.304474,339.412750 497.456696,344.361237 494.268768,348.262970 
	C489.345551,354.288635 482.484833,357.855042 475.974182,361.811249 
	C474.572968,362.662659 473.053802,362.323212 471.797516,361.246552 
	C470.283752,359.949188 470.611023,358.236694 470.935822,356.612396 
	C471.713837,352.721649 475.605652,351.756256 478.350708,349.113037 
	C473.669830,347.834869 469.226776,347.053284 465.198334,344.705902 
	C455.226654,338.895416 450.678741,329.000793 445.851654,319.426636 
	C440.512054,308.835968 435.642059,298.012299 429.009216,286.946014 
	C425.444489,292.881958 422.805725,298.271454 420.873352,303.987305 
	C420.345795,305.547760 421.901093,306.738434 422.701538,307.935577 
	C429.075378,317.468689 434.538086,327.521851 439.963623,337.605652 
	C441.261444,340.017700 442.375610,342.288086 439.535522,344.082489 
	C436.737518,345.850342 434.104126,345.151306 432.236786,342.386536 
	C427.329987,335.121552 422.444580,327.841278 417.646698,320.504303 
	C416.747314,319.128937 416.165405,317.579681 413.942627,316.794006 
	C410.991089,321.900085 407.798523,326.921356 405.135498,332.209290 
	C403.402771,335.650024 401.142487,338.703186 399.205902,341.981750 
	C397.755585,344.437103 395.632111,344.993256 393.257050,343.840546 
	C390.820923,342.658264 390.095520,340.408356 391.056763,337.913422 
	C393.493439,331.588806 395.975891,325.278351 398.616608,319.036987 
	C400.425537,314.761688 402.423340,310.556641 404.541840,306.425385 
	C405.934570,303.709564 405.499420,301.535950 403.891602,299.028442 
	C399.323883,291.904602 394.844116,284.711731 390.683167,277.346405 
	C389.187683,274.699188 386.433502,271.010803 390.495422,268.619049 
	C394.313385,266.370941 397.270691,268.933838 399.472260,272.317566 
	C403.527985,278.551086 407.705017,284.705658 412.177063,291.411285 
	C416.282898,287.057373 417.648132,281.484192 421.258209,277.417908 
	C422.335205,276.204895 421.204529,274.621033 420.274689,273.359253 
	C418.405670,270.822906 416.621429,268.224060 414.637543,265.340088 
z"/>
<path fill="#000000" opacity="1.000000" stroke="none" 
	d="
M179.937790,226.279907 
	C173.776596,224.148483 168.004425,222.103210 161.272827,219.717987 
	C164.049652,225.933365 168.501175,229.970642 172.749466,234.023071 
	C176.695663,237.787323 180.813187,241.436768 185.561935,244.242035 
	C187.626663,245.461731 189.138260,246.958527 187.434448,249.450287 
	C185.790619,251.854340 183.618988,251.775360 181.335968,250.371460 
	C171.641724,244.410278 162.983322,237.278732 156.043625,228.166641 
	C152.707840,223.786667 149.899384,219.120193 147.616898,214.109756 
	C146.477432,211.608444 146.216049,209.279587 148.330276,207.240067 
	C150.423340,205.220901 152.767731,205.475403 155.242035,206.650681 
	C165.718857,211.627167 176.212219,216.605072 187.484543,219.562378 
	C199.339432,222.672501 211.445190,224.257950 223.605042,225.793259 
	C240.671051,227.948013 257.755249,227.504013 274.851471,227.688660 
	C275.633240,227.697083 276.412201,227.965485 277.656830,228.200470 
	C274.939392,232.667709 270.526428,233.459473 266.545776,234.192307 
	C237.107086,239.611923 208.499146,235.245361 179.937790,226.279907 
z"/>
<path fill="#000000" opacity="1.000000" stroke="none" 
	d="
M227.122665,351.344177 
	C220.540527,354.407471 216.730789,352.294769 216.767700,345.235229 
	C216.844803,330.480347 216.030197,315.737946 218.308914,300.971710 
	C219.620865,292.470154 220.708481,283.949036 222.649734,275.558228 
	C222.836319,274.751740 222.887741,273.885040 223.223419,273.147064 
	C224.601028,270.118347 224.970276,265.811707 229.907532,266.662720 
	C234.559418,267.464600 235.325119,271.503357 235.224670,275.070343 
	C234.884216,287.161041 233.896591,299.232849 233.512527,311.323181 
	C233.195511,321.302612 233.257233,331.299957 233.403244,341.285645 
	C233.471985,345.985291 231.876907,349.338196 227.122665,351.344177 
z"/>
<path fill="#000000" opacity="1.000000" stroke="none" 
	d="
M295.933624,360.045044 
	C297.091736,358.636871 297.443726,356.294647 299.774414,357.990570 
	C301.531952,359.269470 301.358276,360.915619 300.180908,362.295593 
	C298.149902,364.676117 295.945648,366.921936 293.674652,369.077393 
	C292.886017,369.825928 291.816528,370.212372 290.478119,369.835602 
	C285.922638,368.553070 281.757690,362.873260 282.354523,358.318115 
	C286.887695,358.420319 289.798370,370.312836 295.933624,360.045044 
z"/>
<path fill="#000000" opacity="1.000000" stroke="none" 
	d="
M175.727600,355.319519 
	C177.146591,351.535004 176.961868,347.241302 181.217926,345.456451 
	C182.931717,350.094788 181.163086,357.880981 177.473694,361.849304 
	C174.902969,360.381622 175.866806,357.875916 175.727600,355.319519 
z"/>
<path fill="#000000" opacity="1.000000" stroke="none" 
	d="
M188.167526,350.782990 
	C188.713196,354.220306 187.738602,357.066040 186.859375,359.890747 
	C186.475891,361.122803 185.744400,362.427673 184.015869,362.024048 
	C182.476929,361.664734 182.547501,360.268890 182.656326,359.204285 
	C182.997147,355.869965 184.602020,352.956207 186.193039,350.093109 
	C186.652115,349.266968 187.592133,349.411865 188.167526,350.782990 
z"/>
<path fill="#000000" opacity="1.000000" stroke="none" 
	d="
M193.587646,361.455811 
	C191.137527,364.130554 189.521088,363.328156 189.925980,360.489594 
	C190.435867,356.914948 191.509918,353.292816 194.489456,349.829926 
	C195.981735,354.167297 195.381012,357.655518 193.587646,361.455811 
z"/>
</svg>