<?xml version="1.0" encoding="UTF-8" standalone="no"?>
<svg
   version="1.1"
   id="Layer_1"
   x="0px"
   y="0px"
   width="382.28741"
   viewBox="0 0 382.28741 191.41986"
   enable-background="new 0 0 592 592"
   xml:space="preserve"
   sodipodi:docname="yunocchi.svg"
   height="191.41986"
   inkscape:version="1.4.2 (1:1.4.2+202505120738+ebf0e940d0)"
   xmlns:inkscape="http://www.inkscape.org/namespaces/inkscape"
   xmlns:sodipodi="http://sodipodi.sourceforge.net/DTD/sodipodi-0.dtd"
   xmlns="http://www.w3.org/2000/svg"
   xmlns:svg="http://www.w3.org/2000/svg"><defs
   id="defs8" /><sodipodi:namedview
   id="namedview8"
   pagecolor="#ffffff"
   bordercolor="#999999"
   borderopacity="1"
   inkscape:showpageshadow="2"
   inkscape:pageopacity="0"
   inkscape:pagecheckerboard="0"
   inkscape:deskcolor="#d1d1d1"
   inkscape:zoom="1.347973"
   inkscape:cx="182.49624"
   inkscape:cy="90.506266"
   inkscape:window-width="1920"
   inkscape:window-height="1011"
   inkscape:window-x="0"
   inkscape:window-y="0"
   inkscape:window-maximized="1"
   inkscape:current-layer="Layer_1" />
<path
   fill="#000000"
   opacity="1"
   stroke="none"
   d="m 290.12465,162.83576 c -2.89502,0.87557 -5.4123,1.64736 -8.03079,2.45019 -0.47718,2.96689 0.449,5.25305 2.52752,7.44721 7.11194,-2.98963 12.42719,-8.35865 18.18707,-12.97358 3.63956,-2.9161 6.96881,-3.63574 10.91806,-1.38681 3.17057,1.80545 6.21531,3.83264 9.39432,5.6221 5.80795,3.26923 8.43649,2.75913 12.06424,-2.77942 1.70535,-2.60357 3.90854,-4.50116 6.37033,-6.18142 1.42762,-0.97446 2.99097,-2.50934 4.84851,-0.69358 1.78372,1.74357 2.24488,4.16636 0.69709,5.86048 -4.3805,4.79468 -8.34153,9.88327 -12.09644,15.16162 -1.21609,1.7095 -2.8667,1.07761 -4.52966,0.60596 -6.1464,-1.74314 -11.53452,-5.12635 -17.09387,-8.06052 -3.72889,-1.96805 -6.54587,-1.37152 -9.55387,1.06503 -4.89905,3.96836 -9.89709,7.81421 -14.8305,11.74051 -5.65155,4.49784 -8.15995,3.88745 -11.12961,-2.74942 -0.20337,-0.45456 -0.47602,-0.87857 -0.72238,-1.31341 -1.70697,-3.01264 -1.03876,-7.97547 -4.14661,-9.16883 -2.80194,-1.07593 -6.75207,0.44773 -10.09628,1.24317 -13.40555,3.18853 -27.11509,4.48672 -40.69483,6.52893 -10.96359,1.64877 -22.07623,2.32541 -33.13058,3.34839 -31.1575,2.88348 -62.3915,3.42779 -93.658334,3.06198 -5.29883,-0.062 -10.08705,1.77105 -14.31138,5.01294 -1.31542,1.00949 -2.59426,2.09958 -4.02198,2.92398 -5.59747,3.23214 -8.35601,2.24579 -10.64323,-3.681 -0.59656,-1.54581 -1.16928,-3.10147 -1.79822,-4.634 -1.78038,-4.33838 -4.96699,-4.9459 -8.8809,-3.16373 -3.02713,1.37833 -5.93312,3.02304 -8.96227,4.39648 -2.56314,1.16211 -5.17378,2.26902 -7.85319,3.11643 -11.53818,3.64926 -15.69861,-0.18045 -13.2762,-12.11426 1.25639,-6.18961 0.23344,-7.92633 -6.03472,-8.69434 -3.31179,-0.40579 -6.52755,-1.04376 -9.7453604,-1.83688 -6.20531,-1.52945 -10.90849,-9.37912 -9.70041998,-15.83414 0.41704,-2.2283 2.12775998,-2.37961 3.52970998,-3.00009 6.9759704,-3.08758 14.0072904,-6.04986 20.9995104,-9.10119 1.50529,-0.65693 3.09799,-1.24595 3.83246,-2.9755 3.74128,-8.81021 7.50801,-17.60959 11.37787,-26.67529 -3.01992,-1.41849 -6.02478,-1.19599 -8.55654,-0.55634 -5.73622,1.44925 -11.64078,6.4e-4 -17.3478,1.60437 -2.30625,0.64804 -4.8131304,-0.20401 -5.6881404,-2.8652 -0.74757,-2.27362 -0.44397,-4.267851 1.62401,-6.220121 13.8934104,-13.11585 27.5926404,-26.4458 42.6788104,-38.21891 3.82095,-2.98181 7.66672,-6.05191 12.8419,-7.21847 -14.99838,15.38086 -31.79019,28.90997 -45.67364,45.93115 4.15152,1.77679 8.02852,1.34531 11.62332,0.76517 3.32702,-0.53699 6.61398,-0.46546 9.9106,-0.75327 4.6163,-0.40307 5.75967,1.86777 4.32959,5.657141 -3.86985,10.25415 -5.64356,21.11773 -9.41603,31.4161 -1.49718,4.0871 -3.98139,6.23337 -7.72139,7.67896 -5.26661,2.03564 -10.72541,3.62088 -15.65937,6.45868 -1.57151,0.90384 -3.1418904,1.8378 -4.2612904,3.65118 2.3305304,2.12033 5.1169704,2.79856 8.0957704,3.18195 3.11258,0.40057 6.21678,0.93088 9.28743,1.58032 8.1679,1.72745 8.6894,2.79697 9.00598,11.51733 0.0921,2.538 -3.05829,5.86954 0.52469,7.55521 2.36953,1.11481 4.91131,-1.47436 7.53183,-1.99036 2.06001,-0.40564 4.00177,-1.66809 4.93753,-4.33236 -11.95504,-14.1799 -6.0826,-28.83551 -0.27158,-43.36063 7.38361,-18.45596 19.04199,-34.096371 32.56593,-48.471041 3.16584,-3.36499 5.98156,-7.05725 9.56014,-10.03277 2.21312,-1.84015 4.11908,-4.79218 7.459,-1.64945 3.412924,3.2114 -0.12724,5.3346 -1.57349,7.01673 -9.74481,11.3341 -19.32135,22.77725 -27.28706,35.467521 -7.1958,11.46372 -12.61719,23.67643 -15.31206,37.0073 -1.97694,9.77954 1.69528,15.93054 11.60832,19.54709 5.03087,1.83538 10.35482,2.80282 15.56589,2.974 16.763,0.55081 33.460854,3.27026 50.256644,2.10516 21.32223,-1.47906 42.67932,-2.16846 63.96347,-4.64786 23.52841,-2.74084 46.86648,-6.509 70.22357,-10.28122 1.67874,-0.27112 3.15109,-0.69137 4.54178,-1.65753 -0.92316,-3.0921 -3.34564,-2.55374 -5.38153,-2.57953 -5.4859,-0.0695 -10.96988,0.0468 -16.33423,-1.46231 -7.12466,-2.00433 -8.02524,-4.53274 -3.66251,-10.46603 0.66788,-0.9083 1.19516,-1.91999 1.8303,-2.95349 -1.65238,-0.40552 -3.02604,-0.82892 -4.43085,-1.07328 -8.41211,-1.46298 -8.8646,-1.64608 -9.07123,-10.12182 -0.38892,-15.95203 -0.1517,-31.901611 1.83923,-47.771181 0.43735,-3.48624 -0.29156,-6.35303 -2.96194,-9.01486 -5.87466,-5.85584 -11.41123,-12.05042 -17.10443,-18.08915 -0.88422,-0.93788 -1.53919,-2.2426 -3.55155,-2.23843 -3.30368,4.91858 -4.74038,10.95389 -7.48443,16.36118 -4.28314,8.44009 -8.14783,17.09341 -12.14197,25.67865 -1.00336,2.1567 -2.34521,4.01129 -4.14786,5.54476 -4.2402,3.60721 -7.12939,3.28208 -10.31869,-1.32339 -10.02927,-14.48267 -19.07025,-29.5339 -25.44211,-46.02106 -1.1496,-2.97461 -4.02939,-6.51159 0.63956,-9.88403 10.50134,15.9649 17.5914,33.64761 29.51654,49.07468 4.74579,-3.42478 6.51065,-8.53293 9.06445,-12.92963 5.50021,-9.4693 10.50391,-19.22711 16.0079,-28.69409 3.22013,-5.53873 4.91678,-5.66695 9.40995,-1.10596 6.03454,6.1257 11.84799,12.46927 17.98898,18.96536 0.94476,-1.37487 1.42526,-1.75186 1.44089,-2.14721 0.13787,-3.49362 0.34152,-6.96686 5.09604,-6.97504 4.78717,-0.008 8.4259,3.23337 8.68759,7.81604 0.19925,3.4888 0.41031,7.03989 -0.0106,10.48676 -0.67432,5.52114 1.44635,9.68545 5.2449,13.32583 0.96106,0.92105 1.83307,1.93433 2.76618,2.88544 1.76602,1.80005 3.15661,4.19412 1.27606,6.14371 -2.25913,2.34207 -4.09443,-0.27872 -5.84738,-1.69013 -1.12577,-0.9064 -1.80829,-2.43436 -3.91636,-2.61249 0,13.520881 0,26.975471 0,41.678901 4.4603,-6.43265 9.92731,-10.44672 12.64527,-16.69776 1.04113,-2.3945 1.49981,-4.77472 1.0639,-7.28369 -1.75482,-10.100161 -0.45672,-20.272461 -0.78448,-30.404901 -0.0374,-1.15525 0.011,-2.39737 1.79791,-2.87998 2.28497,4.28928 2.54159,9.15958 2.67508,13.76114 0.25122,8.66013 1.76861,17.129361 2.81357,25.669161 0.32836,2.68335 -0.41672,4.96167 -1.89792,6.97714 -2.456,3.34177 -5.10208,6.54633 -7.72437,9.76279 -2.53152,3.10507 -4.15637,6.41507 -3.55545,10.71139 4.14218,-0.30386 3.50238,-5.57925 7.38208,-5.28158 2.48822,1.82858 -0.10415,4.21695 0.36444,6.32986 4.12195,1.6445 3.72144,-3.8193 6.77881,-3.94244 1.53281,4.7308 6.89786,6.86423 8.36395,11.94739 0.44962,1.55892 2.53458,1.20092 4.03611,0.90216 3.41116,-0.67877 6.88165,-1.15485 10.21273,-2.1138 3.20746,-0.92331 5.88855,-0.40921 7.04825,2.68322 1.24661,3.32404 -0.0713,6.34876 -3.28573,7.98835 -1.72238,0.87851 -3.80832,1.04428 -6.10788,1.63553 z"
   id="path1" />
<path
   fill="#000000"
   opacity="1"
   stroke="none"
   d="m 301.15269,59.595949 c -11.3833,-15.00543 -26.53799,-22.9276 -44.31109,-27.07621 -16.30829,-3.80668 -32.79731,-6.35614 -49.30228,-8.94401 -2.06714,-0.32411 -5.02997,-0.30745 -4.98731,-3.01167 0.0497,-3.14749 3.11704,-3.47445 5.62461,-3.60617 17.96536,-0.94378 35.29718,2.44772 52.29556,7.89206 6.77014,2.16838 13.37476,4.88482 20.20218,6.83584 11.55844,3.30293 19.22705,11.41602 26.23062,20.40454 13.44559,17.25632 23.04071,36.80066 33.10632,56.064301 2.6121,4.99909 5.42438,9.89457 8.1868,14.81394 3.82941,6.81952 15.47864,12.19381 23.25849,10.59424 1.81622,-0.37342 3.59152,-0.79029 5.4169,-0.54871 4.94613,0.65451 7.09836,5.603 3.91043,9.50473 -4.92322,6.02566 -11.78394,9.59207 -18.29459,13.54828 -1.40121,0.85141 -2.92038,0.51196 -4.17666,-0.5647 -1.51377,-1.29736 -1.1865,-3.00986 -0.8617,-4.63415 0.77802,-3.89075 4.66983,-4.85614 7.41489,-7.49936 -4.68088,-1.27817 -9.12393,-2.05976 -13.15238,-4.40714 -9.97168,-5.81048 -14.51959,-15.70511 -19.34668,-25.27926 -5.3396,-10.59067 -10.20959,-21.414341 -16.84243,-32.480631 -3.56473,5.93595 -6.2035,11.32544 -8.13587,17.04129 -0.52756,1.56046 1.02774,2.751131 1.82819,3.948281 6.37384,9.53311 11.83655,19.58627 17.26208,29.67007 1.29782,2.41205 2.41199,4.68244 -0.4281,6.47684 -2.798,1.76785 -5.43139,1.06882 -7.29873,-1.69595 -4.9068,-7.26499 -9.79221,-14.54526 -14.59009,-21.88224 -0.89939,-1.37536 -1.48129,-2.92462 -3.70407,-3.71029 -2.95154,5.10607 -6.14411,10.12735 -8.80713,15.41528 -1.73273,3.44073 -3.99301,6.4939 -5.9296,9.77246 -1.45032,2.45535 -3.57379,3.01151 -5.94885,1.8588 -2.43613,-1.18229 -3.16153,-3.43219 -2.20029,-5.92713 2.43668,-6.32461 4.91913,-12.63507 7.55985,-18.87643 1.80893,-4.2753 3.80673,-8.48035 5.92523,-12.61161 1.39273,-2.715821 0.95758,-4.889431 -0.65024,-7.396941 -4.56772,-7.12384 -9.04748,-14.31671 -13.20843,-21.68204 -1.49549,-2.64721 -4.24967,-6.3356 -0.18775,-8.72735 3.81796,-2.24811 6.77527,0.31479 8.97684,3.69852 4.05572,6.23352 8.23276,12.38809 12.7048,19.09372 4.10584,-4.35392 5.47107,-9.9271 9.08115,-13.99338 1.07699,-1.21301 -0.0537,-2.79688 -0.98352,-4.05866 -1.86902,-2.53634 -3.65326,-5.13519 -5.63715,-8.01916 z"
   id="path2" />
<path
   fill="#000000"
   opacity="1"
   stroke="none"
   d="m 66.452936,20.535769 c -6.16119,-2.13143 -11.93337,-4.1767 -18.66496,-6.56192 2.77682,6.21537 7.22834,10.25265 11.47664,14.30508 3.94619,3.76425 8.06372,7.4137 12.81246,10.21896 2.06473,1.2197 3.57633,2.7165 1.87252,5.20826 -1.64383,2.40405 -3.81546,2.32507 -6.09848,0.92117 -9.69425,-5.96118 -18.35265,-13.09273 -25.29235,-22.20482 -3.33578,-4.37997 -6.14424,-9.04645 -8.42672,-14.0568805 -1.13947,-2.50132 -1.40085,-4.83017 0.71338,-6.86969 2.09306,-2.01916995 4.43745,-1.76466995 6.91175,-0.58938995 10.47683,4.97648995 20.97019,9.95439045 32.24251,12.91170045 11.85489,3.11012 23.96065,4.69557 36.120504,6.23088 17.06601,2.15475 34.15021,1.71075 51.24643,1.8954 0.78177,0.008 1.56073,0.27682 2.80536,0.51181 -2.71744,4.46724 -7.1304,5.259 -11.11105,5.99184 -29.43869,5.41961 -58.046634,1.05305 -86.607994,-7.9124 z"
   id="path3" />
<path
   fill="#000000"
   opacity="1"
   stroke="none"
   d="m 113.63781,145.60004 c -6.58213,3.06329 -10.39187,0.95059 -10.35496,-6.10895 0.0771,-14.75488 -0.7375,-29.49728 1.54121,-44.263521 1.31195,-8.50156 2.39957,-17.02267 4.34082,-25.41348 0.18659,-0.80649 0.23801,-1.67319 0.57369,-2.41117 1.37761,-3.02871 1.74686,-7.33535 6.68411,-6.48434 4.65189,0.80188 5.41759,4.84064 5.31714,8.40762 -0.34045,12.0907 -1.32808,24.16251 -1.71214,36.252841 -0.31702,9.97943 -0.2553,19.97678 -0.10929,29.96246 0.0687,4.69965 -1.52633,8.05256 -6.28058,10.05854 z"
   id="path4" />
<path
   fill="#000000"
   opacity="1"
   stroke="none"
   d="m 182.44877,154.3009 c 1.15812,-1.40817 1.51011,-3.75039 3.84079,-2.05447 1.75754,1.2789 1.58387,2.92505 0.4065,4.30502 -2.03101,2.38053 -4.23526,4.62635 -6.50626,6.7818 -0.78863,0.74854 -1.85812,1.13498 -3.19653,0.75821 -4.55548,-1.28253 -8.72043,-6.96234 -8.1236,-11.51749 4.53317,0.10221 7.44385,11.99473 13.5791,1.72693 z"
   id="path5" />
<path
   fill="#000000"
   opacity="1"
   stroke="none"
   d="m 62.242746,149.57538 c 1.41899,-3.78452 1.23427,-8.07822 5.49033,-9.86307 1.71379,4.63834 -0.0548,12.42453 -3.74424,16.39285 -2.57072,-1.46768 -1.60688,-3.97338 -1.74609,-6.52978 z"
   id="path6" />
<path
   fill="#000000"
   opacity="1"
   stroke="none"
   d="m 74.682676,145.03885 c 0.54567,3.43732 -0.42893,6.28305 -1.30816,9.10776 -0.38348,1.23205 -1.11497,2.53692 -2.8435,2.1333 -1.53894,-0.35932 -1.46837,-1.75516 -1.35954,-2.81976 0.34082,-3.33433 1.94569,-6.24808 3.53671,-9.11118 0.45907,-0.82614 1.39909,-0.68125 1.97449,0.68988 z"
   id="path7" />
<path
   fill="#000000"
   opacity="1"
   stroke="none"
   d="m 80.102796,155.71167 c -2.45012,2.67474 -4.06656,1.87235 -3.66167,-0.96622 0.50989,-3.57464 1.58394,-7.19677 4.56348,-10.65966 1.49227,4.33737 0.89155,7.82559 -0.90181,11.62588 z"
   id="path8" />
</svg>
